<svg width="307" height="103" viewBox="0 0 307 103" fill="none" xmlns="http://www.w3.org/2000/svg">
<mask id="mask0_1_3440" style="mask-type:alpha" maskUnits="userSpaceOnUse" x="0" y="0" width="307" height="103">
<rect opacity="0.8" y="0.57959" width="306.344" height="101.441" rx="7.55467" fill="#6C5FBC"/>
</mask>
<g mask="url(#mask0_1_3440)">
<g opacity="0.25">
<path d="M236.541 58.5598C235.225 57.7388 234.429 56.216 234.626 54.5801C234.897 52.3212 236.965 50.7041 239.237 50.9739C241.258 51.2138 242.767 52.8654 242.885 54.8244C241.652 54.7438 240.536 55.518 240.173 56.6615C240.028 56.6224 239.878 56.588 239.725 56.5699C238.298 56.4004 236.984 57.2609 236.541 58.5598Z" stroke="#151254" stroke-width="0.91635" stroke-linecap="round" stroke-linejoin="round"/>
<path d="M241.155 53.6144C241.216 53.2692 241.011 52.966 240.699 52.9412C240.388 52.9164 240.083 53.179 240.023 53.5241C239.962 53.8692 240.167 54.1725 240.478 54.1973C240.795 54.2225 241.094 53.9595 241.155 53.6144Z" fill="#201D67"/>
<path d="M244.47 52.6612C244.53 52.3161 244.325 52.0129 244.014 51.9881C243.703 51.9633 243.398 52.2258 243.337 52.571C243.276 52.9161 243.482 53.2193 243.793 53.2441C244.11 53.2637 244.409 53.0064 244.47 52.6612Z" fill="#201D67"/>
<path d="M239.087 55.1427C239.148 54.7975 238.942 54.4943 238.631 54.4695C238.32 54.4447 238.015 54.7073 237.954 55.0524C237.894 55.3975 238.099 55.7008 238.41 55.7256C238.726 55.7508 239.026 55.4878 239.087 55.1427Z" fill="#201D67"/>
<path d="M236.639 55.4014C236.639 55.4014 236.587 55.2799 236.517 55.1233C236.453 54.9727 236.396 54.8451 236.396 54.8451C236.396 54.8451 236.448 54.9666 236.517 55.1233C236.588 55.2744 236.639 55.4014 236.639 55.4014Z" stroke="#151254" stroke-width="0.91635" stroke-linecap="round" stroke-linejoin="round"/>
<path d="M238.533 52.8296C238.533 52.8296 238.464 52.9477 238.38 53.0916C238.297 53.2355 238.227 53.3536 238.227 53.3536C238.227 53.3536 238.297 53.2355 238.38 53.0916C238.464 52.9477 238.533 52.8296 238.533 52.8296Z" stroke="#151254" stroke-width="0.91635" stroke-linecap="round" stroke-linejoin="round"/>
<path d="M242.282 50.5485C242.282 50.5485 242.363 50.657 242.463 50.7897C242.563 50.9225 242.644 51.031 242.644 51.031C242.644 51.031 242.563 50.9225 242.463 50.7897C242.363 50.657 242.282 50.5485 242.282 50.5485Z" stroke="#151254" stroke-width="0.91635" stroke-linecap="round" stroke-linejoin="round"/>
<path d="M239.313 49.6414C240.024 49.1544 240.904 48.9127 241.824 49.022C243.835 49.2607 245.269 51.0737 245.029 53.0726C244.835 54.6868 243.608 55.9311 242.082 56.2224" stroke="#151254" stroke-width="0.91635" stroke-linecap="round" stroke-linejoin="round"/>
<path d="M200.275 -3.47998L194.152 -1.38452L199.129 1.37313" stroke="#151254" stroke-width="0.91635" stroke-linecap="round" stroke-linejoin="round"/>
<path d="M199.599 2.521C199.614 2.4283 199.625 2.34629 199.632 2.26952C199.681 1.66588 199.474 1.56693 199.596 0.81436C199.733 -0.0309178 200.008 -0.009375 200.143 -0.843746C200.28 -1.68902 200.004 -1.71057 200.139 -2.54494C200.261 -3.29751 200.49 -3.35691 200.639 -3.95827C200.656 -4.02874 200.673 -4.11579 200.688 -4.2085" stroke="#151254" stroke-width="0.91635" stroke-linecap="round" stroke-linejoin="round"/>
<path d="M200.491 2.2796C200.26 2.26735 200.041 2.20924 199.856 2.10068C199.924 1.55208 199.59 1.46469 199.77 0.788339C199.972 0.026007 200.414 0.0493753 200.613 -0.701493C200.815 -1.46382 200.373 -1.48719 200.573 -2.23806C200.752 -2.91441 201.119 -2.97055 201.344 -3.50503C201.578 -3.58562 201.823 -3.62496 202.055 -3.61271C203.273 -3.54827 203.909 -2.17778 203.477 -0.549941C203.045 1.07789 201.709 2.34403 200.491 2.2796Z" stroke="#151254" stroke-width="0.91635" stroke-linecap="round" stroke-linejoin="round"/>
<path d="M199.112 1.86387L199.781 -3.70557" stroke="#151254" stroke-width="0.91635" stroke-linecap="round" stroke-linejoin="round"/>
<path d="M192.391 54.1417L193.081 50.0933L192.713 50.0642L192.023 54.1127L192.391 54.1417Z" stroke="#151254" stroke-width="0.91635" stroke-linecap="round" stroke-linejoin="round"/>
<path d="M195.999 57.0973C195.919 57.477 195.583 57.7492 195.318 57.6411C193.676 56.9386 192.81 54.7701 193.332 52.2912C193.855 49.8124 195.6 47.816 197.489 47.3461C197.792 47.2698 198.006 47.5783 197.925 47.9635L195.999 57.0973V57.0973Z" stroke="#151254" stroke-width="0.91635" stroke-linecap="round" stroke-linejoin="round"/>
<path d="M197.843 50.5969C197.693 51.2684 198.025 51.8413 198.585 51.8765C199.145 51.9116 199.721 51.3958 199.871 50.7242C200.022 50.0527 199.689 49.4798 199.129 49.4446C198.569 49.4094 197.993 49.9253 197.843 50.5969Z" stroke="#151254" stroke-width="0.91635" stroke-linecap="round" stroke-linejoin="round"/>
<path d="M197.41 54.9294C197.26 55.6009 197.592 56.1738 198.152 56.209C198.712 56.2442 199.288 55.7283 199.439 55.0567C199.589 54.3852 199.257 53.8123 198.697 53.7771C198.137 53.742 197.561 54.2578 197.41 54.9294Z" stroke="#151254" stroke-width="0.91635" stroke-linecap="round" stroke-linejoin="round"/>
<path d="M197.61 52.9292C197.497 53.4352 197.747 53.8669 198.169 53.8934C198.591 53.9199 199.025 53.5312 199.139 53.0252C199.252 52.5191 199.002 52.0874 198.579 52.0609C198.157 52.0344 197.723 52.4231 197.61 52.9292Z" stroke="#151254" stroke-width="0.91635" stroke-linecap="round" stroke-linejoin="round"/>
<path d="M200.006 50.2437L202.03 48.5005" stroke="#151254" stroke-width="0.91635" stroke-linecap="round" stroke-linejoin="round"/>
<path d="M196.247 48.1885L195.217 56.7693" stroke="#151254" stroke-width="0.91635" stroke-linecap="round" stroke-linejoin="round"/>
<path d="M221.955 34.2022L223.462 24.375C222.743 24.3101 222.051 24.9893 221.912 25.8956L220.908 32.447C220.769 33.3533 221.237 34.1373 221.955 34.2022Z" stroke="#151254" stroke-width="0.91635" stroke-linecap="round" stroke-linejoin="round"/>
<path d="M227.536 29.7989C227.958 27.3431 226.543 25.2111 224.375 25.0346L223.884 24.9947L222.356 33.8845L222.846 33.9244C225.015 34.1009 227.113 32.2547 227.536 29.7989Z" stroke="#151254" stroke-width="0.91635" stroke-linecap="round" stroke-linejoin="round"/>
<path d="M227.432 29.9043C227.335 30.4511 227.657 30.9263 228.15 30.9656C228.644 31.0049 229.121 30.5935 229.217 30.0467C229.314 29.4999 228.992 29.0248 228.499 28.9855C228.005 28.9462 227.528 29.3576 227.432 29.9043Z" fill="#201D67"/>
<path d="M234.562 -3.77832C234.29 -2.28884 233.45 -0.866632 232.098 0.176076C230.759 1.20924 229.156 1.67274 227.618 1.58915" stroke="#151254" stroke-width="0.91635" stroke-linecap="round" stroke-linejoin="round"/>
<path d="M227.19 2.16547L227.106 1.47979L226.257 -5.47774C226.143 -6.41429 227.055 -7.11355 227.954 -6.77609L229.858 -6.06656L229.98 -6.01918L231.635 -5.39964L231.794 -5.34231L234.57 -4.29856L235.246 -4.04242C235.897 -3.80036 236.25 -3.10465 236.061 -2.45673C235.599 -0.863359 234.664 0.574938 233.275 1.64627C231.898 2.71347 230.258 3.26041 228.575 3.32986C227.887 3.358 227.274 2.84573 227.19 2.16547Z" stroke="#151254" stroke-width="0.91635" stroke-linecap="round" stroke-linejoin="round"/>
<path d="M220.313 82.5137C219.878 81.3744 219.763 79.8585 220.068 78.2181C220.371 76.5887 221.034 75.1307 221.877 74.0698" stroke="#151254" stroke-width="0.91635" stroke-linecap="round" stroke-linejoin="round"/>
<path d="M220.601 74.172C219.693 75.3769 219.009 76.7827 218.646 78.2958C218.223 80.0689 218.305 81.7435 218.793 83.1615C218.991 83.7359 219.596 83.9305 220.174 83.6021L220.78 83.2578L223.252 81.8309C223.252 81.8309 225.011 80.8179 226.669 79.8634C227.471 79.402 227.752 78.2355 227.194 77.698L223.048 73.6985L222.639 73.3047C222.233 72.917 221.544 73.0396 221.08 73.5857C220.912 73.7689 220.754 73.9703 220.601 74.172Z" stroke="#151254" stroke-width="0.91635" stroke-linecap="round" stroke-linejoin="round"/>
<path d="M222.603 76.5257C222.683 76.3899 222.719 76.2339 222.704 76.0924C222.698 76.0159 222.678 75.9561 222.649 75.8957C222.583 75.7863 222.479 75.7156 222.356 75.7082C222.228 75.7004 222.1 75.7514 221.984 75.8557C221.869 75.96 221.789 76.0958 221.752 76.2518C221.716 76.4078 221.731 76.5494 221.796 76.6646C221.86 76.7798 221.965 76.8447 222.089 76.8521C222.212 76.8596 222.346 76.8032 222.46 76.7046C222.52 76.6555 222.568 76.5939 222.603 76.5257Z" fill="#201D67"/>
<path d="M221.812 78.598C221.892 78.4622 221.928 78.3062 221.913 78.1647C221.905 78.0939 221.887 78.0283 221.858 77.968C221.792 77.8586 221.688 77.7879 221.565 77.7804C221.437 77.7727 221.309 77.8236 221.193 77.928C221.078 78.0323 220.998 78.1681 220.961 78.3241C220.925 78.4801 220.94 78.6216 221.005 78.7368C221.069 78.8521 221.17 78.9167 221.298 78.9244C221.421 78.9318 221.555 78.8754 221.669 78.7769C221.724 78.7275 221.771 78.6717 221.812 78.598Z" fill="#201D67"/>
<path d="M221.951 80.9844C222.177 80.7812 222.265 80.4 222.14 80.1757C222.074 80.0663 221.97 79.9956 221.847 79.9882C221.719 79.9804 221.591 80.0313 221.476 80.1357C221.36 80.24 221.28 80.3758 221.244 80.5317C221.226 80.6068 221.223 80.6828 221.232 80.7477C221.239 80.8185 221.258 80.884 221.287 80.9444C221.351 81.0595 221.452 81.1242 221.58 81.1319C221.7 81.1333 221.838 81.0772 221.951 80.9844Z" fill="#201D67"/>
<path d="M224.047 80.2799C224.116 80.2547 224.173 80.2171 224.232 80.168C224.458 79.9648 224.547 79.5836 224.421 79.3593C224.386 79.3044 224.348 79.2611 224.293 79.2286C224.243 79.1962 224.185 79.1752 224.128 79.1718C224.066 79.168 224.001 79.1817 223.942 79.2074C223.878 79.2328 223.816 79.2701 223.757 79.3193C223.641 79.4236 223.561 79.5594 223.525 79.7153C223.507 79.7904 223.504 79.8664 223.513 79.9313C223.521 80.0021 223.539 80.0676 223.568 80.128C223.633 80.2431 223.733 80.3078 223.861 80.3155C223.918 80.3189 223.984 80.3053 224.047 80.2799Z" fill="#201D67"/>
<path d="M224.305 78.1399C224.368 78.1144 224.43 78.0772 224.489 78.0281C224.716 77.8192 224.805 77.4381 224.678 77.2196C224.643 77.1648 224.605 77.1215 224.55 77.0889C224.5 77.0566 224.442 77.0355 224.385 77.0321C224.257 77.0244 224.13 77.0753 224.014 77.1796C223.958 77.2348 223.91 77.2963 223.87 77.3641C223.83 77.432 223.798 77.5062 223.781 77.5813C223.745 77.7372 223.76 77.8787 223.824 77.9938C223.86 78.0486 223.902 78.0922 223.952 78.1245C224.001 78.1626 224.06 78.1779 224.117 78.1813C224.175 78.1789 224.24 78.1711 224.305 78.1399Z" fill="#201D67"/>
<path d="M226.031 78.5064C225.916 78.6107 225.836 78.7465 225.799 78.9025C225.782 78.9776 225.779 79.0535 225.788 79.1185C225.795 79.1892 225.814 79.2548 225.843 79.3151C225.878 79.3699 225.921 79.4135 225.971 79.4458C226.021 79.4781 226.079 79.4992 226.136 79.5026C226.264 79.5103 226.393 79.4537 226.507 79.3551C226.673 79.2011 226.778 78.9556 226.752 78.7373C226.746 78.6608 226.726 78.601 226.697 78.5407C226.631 78.4313 226.527 78.3606 226.404 78.3531C226.342 78.3494 226.277 78.363 226.218 78.3888C226.153 78.42 226.091 78.4573 226.031 78.5064Z" fill="#201D67"/>
<path d="M154.33 56.7998C153.894 55.6605 153.779 54.1446 154.085 52.5042C154.388 50.8748 155.051 49.4168 155.894 48.356" stroke="#151254" stroke-width="0.91635" stroke-linecap="round" stroke-linejoin="round"/>
<path d="M154.616 48.4581C153.709 49.663 153.024 51.0688 152.662 52.5819C152.239 54.355 152.32 56.0297 152.809 57.4476C153.007 58.022 153.612 58.2167 154.19 57.8883L154.795 57.544L157.267 56.117C157.267 56.117 159.026 55.1041 160.685 54.1495C161.486 53.6881 161.768 52.5217 161.209 51.9841L157.064 47.9847L156.654 47.5909C156.249 47.2032 155.56 47.3257 155.095 47.8718C154.927 48.055 154.769 48.2564 154.616 48.4581Z" stroke="#151254" stroke-width="0.91635" stroke-linecap="round" stroke-linejoin="round"/>
<path d="M156.62 50.8099C156.699 50.6741 156.736 50.5181 156.721 50.3766C156.714 50.3 156.695 50.2403 156.665 50.1799C156.6 50.0705 156.496 49.9998 156.372 49.9923C156.244 49.9846 156.117 50.0355 156.001 50.1399C155.885 50.2442 155.805 50.38 155.769 50.536C155.732 50.692 155.748 50.8335 155.812 50.9488C155.877 51.064 155.982 51.1289 156.105 51.1363C156.229 51.1438 156.362 51.0874 156.477 50.9888C156.536 50.9397 156.584 50.8781 156.62 50.8099Z" fill="#201D67"/>
<path d="M155.829 52.8822C155.908 52.7464 155.945 52.5904 155.93 52.4488C155.922 52.3781 155.904 52.3125 155.874 52.2522C155.809 52.1427 155.705 52.072 155.581 52.0646C155.453 52.0569 155.326 52.1078 155.21 52.2121C155.094 52.3165 155.014 52.4523 154.978 52.6083C154.941 52.7643 154.957 52.9058 155.021 53.021C155.086 53.1362 155.186 53.2009 155.314 53.2086C155.438 53.216 155.571 53.1596 155.686 53.0611C155.741 53.0116 155.787 52.9559 155.829 52.8822Z" fill="#201D67"/>
<path d="M155.968 55.2686C156.193 55.0654 156.282 54.6842 156.156 54.4599C156.091 54.3505 155.987 54.2798 155.863 54.2723C155.735 54.2646 155.608 54.3155 155.492 54.4198C155.376 54.5242 155.297 54.6599 155.26 54.8159C155.243 54.891 155.239 54.967 155.248 55.0319C155.256 55.1027 155.274 55.1682 155.303 55.2285C155.368 55.3437 155.468 55.4084 155.597 55.4161C155.716 55.4174 155.855 55.3613 155.968 55.2686Z" fill="#201D67"/>
<path d="M158.062 54.5645C158.131 54.5394 158.187 54.5018 158.247 54.4527C158.472 54.2495 158.561 53.8683 158.436 53.644C158.4 53.5891 158.362 53.5458 158.307 53.5132C158.257 53.4809 158.2 53.4599 158.143 53.4564C158.081 53.4527 158.015 53.4663 157.956 53.4921C157.893 53.5175 157.831 53.5548 157.771 53.6039C157.656 53.7083 157.576 53.844 157.54 54C157.522 54.0751 157.519 54.151 157.528 54.216C157.535 54.2867 157.554 54.3523 157.583 54.4126C157.647 54.5278 157.748 54.5924 157.876 54.6002C157.933 54.6036 157.998 54.59 158.062 54.5645Z" fill="#201D67"/>
<path d="M158.32 52.4241C158.384 52.3986 158.445 52.3613 158.505 52.3122C158.732 52.1034 158.821 51.7222 158.694 51.5038C158.658 51.4489 158.62 51.4057 158.565 51.3731C158.515 51.3408 158.458 51.3197 158.401 51.3163C158.273 51.3086 158.145 51.3595 158.03 51.4638C157.974 51.5189 157.926 51.5805 157.886 51.6483C157.846 51.7162 157.814 51.7904 157.797 51.8655C157.76 52.0214 157.775 52.1628 157.84 52.278C157.875 52.3328 157.918 52.3764 157.968 52.4087C158.017 52.4468 158.076 52.462 158.133 52.4655C158.191 52.4631 158.255 52.4553 158.32 52.4241Z" fill="#201D67"/>
<path d="M160.047 52.7906C159.931 52.8949 159.851 53.0307 159.815 53.1866C159.798 53.2617 159.794 53.3377 159.803 53.4026C159.811 53.4734 159.829 53.5389 159.858 53.5993C159.894 53.6541 159.936 53.6977 159.987 53.73C160.037 53.7623 160.094 53.7834 160.151 53.7868C160.279 53.7945 160.408 53.7378 160.523 53.6393C160.688 53.4853 160.794 53.2398 160.768 53.0215C160.762 52.9449 160.742 52.8852 160.713 52.8248C160.647 52.7154 160.543 52.6448 160.42 52.6373C160.358 52.6336 160.292 52.6472 160.233 52.6729C160.168 52.7042 160.107 52.7415 160.047 52.7906Z" fill="#201D67"/>
<path d="M186.271 26.2185C184.955 25.3975 184.16 23.8746 184.356 22.2388C184.628 19.9799 186.695 18.3628 188.967 18.6326C190.988 18.8725 192.497 20.5241 192.616 22.4831C191.382 22.4025 190.267 23.1767 189.903 24.3202C189.759 24.2811 189.608 24.2467 189.455 24.2286C188.028 24.0591 186.714 24.9196 186.271 26.2185Z" stroke="#151254" stroke-width="0.91635" stroke-linecap="round" stroke-linejoin="round"/>
<path d="M190.887 21.2721C190.947 20.927 190.742 20.6237 190.431 20.5989C190.12 20.5741 189.815 20.8367 189.754 21.1818C189.693 21.527 189.899 21.8302 190.21 21.855C190.526 21.8802 190.826 21.6172 190.887 21.2721Z" fill="#201D67"/>
<path d="M194.201 20.3189C194.262 19.9738 194.056 19.6706 193.745 19.6458C193.434 19.621 193.129 19.8835 193.068 20.2287C193.008 20.5738 193.213 20.8771 193.524 20.9019C193.842 20.9214 194.14 20.6641 194.201 20.3189Z" fill="#201D67"/>
<path d="M188.818 22.8004C188.879 22.4553 188.674 22.152 188.362 22.1272C188.051 22.1024 187.746 22.365 187.686 22.7101C187.625 23.0553 187.83 23.3585 188.141 23.3833C188.458 23.4085 188.758 23.1455 188.818 22.8004Z" fill="#201D67"/>
<path d="M186.369 23.0601C186.369 23.0601 186.317 22.9385 186.248 22.7819C186.183 22.6314 186.127 22.5038 186.127 22.5038C186.127 22.5038 186.178 22.6253 186.248 22.7819C186.318 22.9331 186.369 23.0601 186.369 23.0601Z" stroke="#151254" stroke-width="0.91635" stroke-linecap="round" stroke-linejoin="round"/>
<path d="M188.265 20.4883C188.265 20.4883 188.195 20.6064 188.112 20.7503C188.028 20.8942 187.959 21.0123 187.959 21.0123C187.959 21.0123 188.028 20.8942 188.112 20.7503C188.195 20.6064 188.265 20.4883 188.265 20.4883Z" stroke="#151254" stroke-width="0.91635" stroke-linecap="round" stroke-linejoin="round"/>
<path d="M192.013 18.2091C192.013 18.2091 192.094 18.3176 192.194 18.4504C192.294 18.5831 192.375 18.6917 192.375 18.6917C192.375 18.6917 192.294 18.5831 192.194 18.4504C192.094 18.3176 192.013 18.2091 192.013 18.2091Z" stroke="#151254" stroke-width="0.91635" stroke-linecap="round" stroke-linejoin="round"/>
<path d="M189.044 17.3001C189.754 16.8131 190.634 16.5714 191.555 16.6807C193.565 16.9194 195 18.7324 194.76 20.7313C194.566 22.3455 193.339 23.5898 191.812 23.881" stroke="#151254" stroke-width="0.91635" stroke-linecap="round" stroke-linejoin="round"/>
<path d="M201.939 100.828C202.093 100.462 202.173 100.076 202.172 99.7059C202.171 99.3358 202.089 98.9933 201.933 98.7097C201.862 98.5892 201.747 98.5173 201.612 98.5092C201.477 98.501 201.332 98.5572 201.208 98.6659L200.496 99.2901" stroke="#151254" stroke-width="0.91635" stroke-linecap="round" stroke-linejoin="round"/>
<path d="M197.321 104.371C196.992 104.432 196.674 104.397 196.396 104.27C196.118 104.142 195.888 103.926 195.727 103.641C195.693 103.581 195.671 103.51 195.663 103.433C195.654 103.356 195.66 103.274 195.679 103.192C195.698 103.11 195.73 103.03 195.774 102.956C195.817 102.882 195.871 102.816 195.933 102.761L196.652 102.123" stroke="#151254" stroke-width="0.91635" stroke-linecap="round" stroke-linejoin="round"/>
<path d="M196.397 99.2855C196.031 99.5052 195.642 99.6099 195.275 99.5872C195.027 99.5721 194.795 99.4975 194.594 99.3676C194.392 99.2377 194.224 99.0551 194.1 98.8305C194.079 98.7883 194.075 98.7347 194.088 98.6802C194.1 98.6257 194.129 98.5742 194.169 98.5356C194.371 98.356 194.592 98.2161 194.82 98.1234C194.991 98.0368 195.168 97.9801 195.342 97.9555C195.446 97.9484 195.548 97.9546 195.646 97.9738C196.085 98.1056 196.439 98.4176 196.655 98.8613C196.406 98.4471 196.3 97.9162 196.352 97.348C196.371 97.2244 196.4 97.1005 196.438 96.978C196.518 96.7777 196.621 96.5862 196.745 96.4101C196.9 96.1671 197.088 95.9515 197.298 95.7751C197.34 95.7406 197.388 95.7229 197.433 95.7256C197.478 95.7283 197.516 95.7512 197.541 95.7897C197.788 96.2433 197.847 96.8363 197.706 97.4413C197.6 97.8849 197.391 98.3119 197.105 98.6715" stroke="#151254" stroke-width="0.91635" stroke-linecap="round" stroke-linejoin="round"/>
<path d="M201.959 106.269C202.04 106.204 202.115 106.13 202.184 106.048C202.364 105.818 202.511 105.557 202.615 105.282C202.719 105.007 202.778 104.722 202.79 104.444C202.861 103.79 202.831 103.153 202.703 102.564C202.526 101.459 202.063 100.512 201.368 99.8349C200.653 99.2287 199.788 98.858 198.84 98.7508C198.773 98.7468 198.297 98.6184 198.249 98.68L197.558 99.2887C197.496 99.326 197.408 99.9301 197.413 100.012C197.165 101.186 197.146 102.351 197.357 103.413C197.617 104.471 198.159 105.342 198.917 105.921C199.668 106.482 200.917 107.144 201.959 106.269Z" stroke="#151254" stroke-width="0.91635" stroke-linecap="round" stroke-linejoin="round"/>
<path d="M202.594 102.212C201.889 102.408 201.197 102.795 200.578 103.34C199.959 103.888 199.432 104.58 199.045 105.353" stroke="#151254" stroke-width="0.91635" stroke-linecap="round" stroke-linejoin="round"/>
<path d="M141.948 76.4378C142.102 76.0713 142.182 75.6854 142.181 75.3153C142.18 74.9452 142.098 74.6027 141.942 74.3191C141.871 74.1986 141.756 74.1267 141.621 74.1185C141.486 74.1104 141.341 74.1666 141.217 74.2753L140.505 74.8994" stroke="#151254" stroke-width="0.91635" stroke-linecap="round" stroke-linejoin="round"/>
<path d="M137.329 79.9803C137.001 80.0412 136.683 80.0063 136.405 79.8789C136.127 79.7514 135.897 79.5354 135.736 79.2504C135.702 79.1899 135.68 79.1191 135.671 79.042C135.663 78.965 135.669 78.8832 135.688 78.8013C135.707 78.7195 135.739 78.6393 135.783 78.5654C135.826 78.4914 135.88 78.4252 135.941 78.3705L136.661 77.7328" stroke="#151254" stroke-width="0.91635" stroke-linecap="round" stroke-linejoin="round"/>
<path d="M136.406 74.8949C136.04 75.1146 135.651 75.2193 135.283 75.1966C135.036 75.1815 134.804 75.1069 134.603 74.977C134.401 74.8471 134.233 74.6645 134.109 74.4398C134.088 74.3976 134.084 74.3441 134.097 74.2896C134.109 74.2351 134.138 74.1836 134.178 74.145C134.379 73.9654 134.6 73.8255 134.829 73.7328C135 73.6462 135.176 73.5895 135.351 73.5649C135.455 73.5578 135.557 73.5639 135.655 73.5832C136.094 73.715 136.448 74.027 136.664 74.4707C136.415 74.0565 136.309 73.5256 136.361 72.9574C136.38 72.8337 136.409 72.7098 136.447 72.5874C136.527 72.3871 136.63 72.1956 136.753 72.0195C136.909 71.7765 137.097 71.5609 137.307 71.3845C137.349 71.3499 137.397 71.3323 137.442 71.335C137.486 71.3377 137.525 71.3606 137.55 71.3991C137.797 71.8527 137.856 72.4456 137.714 73.0507C137.609 73.4942 137.4 73.9213 137.114 74.2809" stroke="#151254" stroke-width="0.91635" stroke-linecap="round" stroke-linejoin="round"/>
<path d="M141.968 81.8783C142.049 81.8137 142.124 81.7396 142.193 81.6575C142.373 81.4273 142.519 81.1669 142.623 80.8914C142.727 80.616 142.787 80.3311 142.799 80.0534C142.869 79.3996 142.84 78.7628 142.712 78.1731C142.535 77.0682 142.071 76.121 141.377 75.4442C140.661 74.8381 139.797 74.4674 138.849 74.3602C138.782 74.3561 138.306 74.2278 138.258 74.2894L137.566 74.8981C137.505 74.9354 137.417 75.5394 137.422 75.6218C137.173 76.7957 137.154 77.9599 137.366 79.0227C137.625 80.08 138.168 80.9518 138.926 81.5308C139.677 82.0917 140.926 82.7529 141.968 81.8783Z" stroke="#151254" stroke-width="0.91635" stroke-linecap="round" stroke-linejoin="round"/>
<path d="M142.603 77.8198C141.898 78.0152 141.206 78.4023 140.586 78.9476C139.967 79.4955 139.441 80.1869 139.054 80.9608" stroke="#151254" stroke-width="0.91635" stroke-linecap="round" stroke-linejoin="round"/>
<path d="M142.207 80.3679C142.265 80.3168 142.317 80.2544 142.359 80.1844C142.4 80.1144 142.431 80.0383 142.449 79.9606C142.467 79.883 142.472 79.8053 142.464 79.7323C142.456 79.6593 142.434 79.5925 142.401 79.5358C142.352 79.4531 142.28 79.3951 142.193 79.369C142.106 79.3429 142.009 79.3498 141.913 79.389C141.816 79.4282 141.726 79.4978 141.653 79.5893C141.579 79.6808 141.526 79.79 141.499 79.9034C141.473 80.0167 141.474 80.1293 141.504 80.2269C141.533 80.3246 141.589 80.403 141.665 80.4526C141.74 80.5021 141.832 80.5205 141.928 80.5054C142.024 80.4904 142.121 80.4425 142.207 80.3679Z" fill="#201D67"/>
<path d="M149.4 22.6622L150.091 18.6138L149.723 18.5847L149.032 22.6332L149.4 22.6622Z" stroke="#151254" stroke-width="0.91635" stroke-linecap="round" stroke-linejoin="round"/>
<path d="M153.009 25.6178C152.929 25.9975 152.592 26.2697 152.328 26.1617C150.686 25.4591 149.819 23.2906 150.342 20.8118C150.865 18.3329 152.609 16.3365 154.498 15.8666C154.802 15.7904 155.016 16.0988 154.934 16.484L153.009 25.6178V25.6178Z" stroke="#151254" stroke-width="0.91635" stroke-linecap="round" stroke-linejoin="round"/>
<path d="M154.855 19.1174C154.704 19.7889 155.036 20.3618 155.597 20.397C156.157 20.4322 156.733 19.9163 156.883 19.2447C157.033 18.5732 156.701 18.0003 156.141 17.9651C155.581 17.9299 155.005 18.4458 154.855 19.1174Z" stroke="#151254" stroke-width="0.91635" stroke-linecap="round" stroke-linejoin="round"/>
<path d="M154.422 23.4499C154.272 24.1214 154.604 24.6943 155.164 24.7295C155.724 24.7647 156.3 24.2488 156.45 23.5772C156.601 22.9057 156.269 22.3328 155.708 22.2976C155.148 22.2625 154.572 22.7783 154.422 23.4499Z" stroke="#151254" stroke-width="0.91635" stroke-linecap="round" stroke-linejoin="round"/>
<path d="M154.622 21.4477C154.509 21.9538 154.759 22.3855 155.181 22.412C155.603 22.4385 156.037 22.0497 156.15 21.5437C156.264 21.0377 156.013 20.606 155.591 20.5794C155.169 20.5529 154.735 20.9417 154.622 21.4477Z" stroke="#151254" stroke-width="0.91635" stroke-linecap="round" stroke-linejoin="round"/>
<path d="M157.017 18.7652L159.041 17.022" stroke="#151254" stroke-width="0.91635" stroke-linecap="round" stroke-linejoin="round"/>
<path d="M153.258 16.71L152.227 25.2908" stroke="#151254" stroke-width="0.91635" stroke-linecap="round" stroke-linejoin="round"/>
<path d="M171.686 1.86231L173.193 -7.96484C172.475 -8.02973 171.783 -7.35053 171.644 -6.44424L170.639 0.107194C170.5 1.01348 170.968 1.79743 171.686 1.86231Z" stroke="#151254" stroke-width="0.91635" stroke-linecap="round" stroke-linejoin="round"/>
<path d="M177.268 -2.54093C177.69 -4.99674 176.276 -7.12876 174.107 -7.30522L173.616 -7.34514L172.088 1.54467L172.579 1.58459C174.747 1.76105 176.846 -0.0851221 177.268 -2.54093Z" stroke="#151254" stroke-width="0.91635" stroke-linecap="round" stroke-linejoin="round"/>
<path d="M159.385 102.999L155.178 96.79C154.73 96.129 153.831 96.0574 153.167 96.6297C152.502 97.2019 152.327 98.1975 152.775 98.8585L156.982 105.068C157.43 105.729 158.328 105.8 158.993 105.228C159.658 104.656 159.833 103.66 159.385 102.999Z" stroke="#151254" stroke-width="0.91635" stroke-linecap="round" stroke-linejoin="round"/>
<path d="M154.604 97.9624C155.006 98.6779 154.75 98.9085 155.15 99.6298C155.551 100.345 155.808 100.115 156.214 100.831C156.616 101.546 156.358 101.782 156.76 102.498C157.161 103.213 157.422 102.983 157.824 103.699" stroke="#151254" stroke-width="0.91635" stroke-linecap="round" stroke-linejoin="round"/>
<path d="M160.339 101.163L157.101 96.3848C156.563 95.5904 155.486 95.5046 154.687 96.1923L159.864 103.833C160.667 103.151 160.878 101.952 160.339 101.163Z" stroke="#151254" stroke-width="0.91635" stroke-linecap="round" stroke-linejoin="round"/>
<path d="M151.821 100.695L155.059 105.473C155.597 106.268 156.674 106.354 157.473 105.666L152.296 98.0255C151.493 98.7072 151.282 99.9065 151.821 100.695Z" stroke="#151254" stroke-width="0.91635" stroke-linecap="round" stroke-linejoin="round"/>
<path d="M237.186 107.79L238.088 102.294C238.249 101.316 239.047 100.581 239.874 100.651L240.766 100.727L239.283 109.762L238.391 109.686C237.565 109.616 237.026 108.768 237.186 107.79Z" stroke="#151254" stroke-width="0.91635" stroke-linecap="round" stroke-linejoin="round"/>
<path d="M241.091 109.679L242.382 101.26C242.453 100.796 242.212 100.392 241.844 100.359C241.476 100.326 241.12 100.676 241.049 101.14L239.758 109.558C239.687 110.022 239.928 110.426 240.296 110.459C240.664 110.493 241.02 110.143 241.091 109.679Z" stroke="#151254" stroke-width="0.91635" stroke-linecap="round" stroke-linejoin="round"/>
<path d="M246.096 106.232L246.196 105.645C246.598 103.29 245.252 101.247 243.187 101.078L242.929 101.057L241.375 110.166L241.632 110.188C243.697 110.357 245.694 108.587 246.096 106.232Z" stroke="#151254" stroke-width="0.91635" stroke-linecap="round" stroke-linejoin="round"/>
<path d="M240.636 100.754C240.409 100.955 240.126 101.09 240.053 101.493C239.981 101.897 240.209 102.071 240.358 102.301" stroke="#151254" stroke-width="0.91635" stroke-linecap="round" stroke-linejoin="round"/>
<path d="M171.492 79.6659L172.394 74.17C172.554 73.1918 173.353 72.4571 174.18 72.5273L175.071 72.603L173.589 81.6382L172.697 81.5625C171.87 81.4923 171.331 80.6441 171.492 79.6659Z" stroke="#151254" stroke-width="0.91635" stroke-linecap="round" stroke-linejoin="round"/>
<path d="M175.397 81.5547L176.688 73.1362C176.759 72.6721 176.518 72.2684 176.15 72.2352C175.782 72.202 175.426 72.5517 175.354 73.0158L174.064 81.4343C173.993 81.8984 174.233 82.302 174.601 82.3353C174.969 82.3685 175.326 82.0188 175.397 81.5547Z" stroke="#151254" stroke-width="0.91635" stroke-linecap="round" stroke-linejoin="round"/>
<path d="M180.401 78.1084L180.501 77.521C180.903 75.166 179.557 73.1228 177.492 72.9537L177.235 72.9326L175.681 82.0424L175.938 82.0635C178.003 82.2326 179.999 80.4634 180.401 78.1084Z" stroke="#151254" stroke-width="0.91635" stroke-linecap="round" stroke-linejoin="round"/>
<path d="M174.942 72.6289C174.715 72.8298 174.432 72.9647 174.36 73.3679C174.288 73.7711 174.515 73.9455 174.665 74.1755" stroke="#151254" stroke-width="0.91635" stroke-linecap="round" stroke-linejoin="round"/>
<path d="M174.332 77.7144C174.105 77.9152 173.822 78.0501 173.75 78.4533C173.677 78.862 173.904 79.0364 174.054 79.2664" stroke="#151254" stroke-width="0.91635" stroke-linecap="round" stroke-linejoin="round"/>
<path d="M173.399 81.02C173.478 80.6096 173.785 80.4724 174.03 80.2681" stroke="#151254" stroke-width="0.91635" stroke-linecap="round" stroke-linejoin="round"/>
<path d="M174.637 75.1738C174.41 75.3747 174.127 75.5096 174.054 75.9128C173.982 76.316 174.21 76.4904 174.359 76.7204" stroke="#151254" stroke-width="0.91635" stroke-linecap="round" stroke-linejoin="round"/>
</g>
<g opacity="0.25">
<path d="M123.171 60.4004C122.143 59.2423 121.815 57.5579 122.469 56.0443C123.373 53.9545 125.817 52.9862 127.919 53.8848C129.789 54.6844 130.765 56.6935 130.321 58.6055C129.161 58.1807 127.87 58.609 127.196 59.6031C127.068 59.5249 126.933 59.4495 126.792 59.3891C125.472 58.8245 123.967 59.2797 123.171 60.4004Z" stroke="#151254" stroke-width="0.91635" stroke-linecap="round" stroke-linejoin="round"/>
<path d="M128.978 56.9387C129.142 56.6032 129.05 56.2447 128.775 56.1429C128.499 56.0412 128.139 56.2328 127.975 56.5684C127.81 56.9039 127.902 57.2624 128.178 57.3641C128.458 57.4676 128.814 57.2743 128.978 56.9387Z" fill="#201D67"/>
<path d="M132.428 56.9592C132.592 56.6237 132.501 56.2652 132.225 56.1634C131.949 56.0617 131.589 56.2533 131.425 56.5888C131.261 56.9244 131.352 57.2829 131.628 57.3846C131.911 57.4826 132.264 57.2948 132.428 56.9592Z" fill="#201D67"/>
<path d="M126.559 57.8245C126.723 57.4889 126.631 57.1304 126.356 57.0287C126.08 56.9269 125.72 57.1185 125.556 57.4541C125.392 57.7896 125.483 58.1481 125.759 58.2499C126.039 58.3533 126.395 58.16 126.559 57.8245Z" fill="#201D67"/>
<path d="M124.165 57.3996C124.165 57.3996 124.15 57.2685 124.128 57.0987C124.109 56.936 124.091 56.7978 124.091 56.7978C124.091 56.7978 124.106 56.9289 124.128 57.0987C124.152 57.2635 124.165 57.3996 124.165 57.3996Z" stroke="#151254" stroke-width="0.91635" stroke-linecap="round" stroke-linejoin="round"/>
<path d="M126.715 55.4658C126.715 55.4658 126.615 55.5595 126.493 55.674C126.372 55.7885 126.272 55.8822 126.272 55.8822C126.272 55.8822 126.372 55.7885 126.493 55.674C126.615 55.5595 126.715 55.4658 126.715 55.4658Z" stroke="#151254" stroke-width="0.91635" stroke-linecap="round" stroke-linejoin="round"/>
<path d="M130.961 54.3367C130.961 54.3367 131.007 54.4635 131.066 54.6191C131.124 54.7746 131.17 54.9014 131.17 54.9014C131.17 54.9014 131.124 54.7746 131.066 54.6191C131.007 54.4635 130.961 54.3367 130.961 54.3367Z" stroke="#151254" stroke-width="0.91635" stroke-linecap="round" stroke-linejoin="round"/>
<path d="M128.372 52.6305C129.192 52.3636 130.105 52.3797 130.957 52.744C132.817 53.5392 133.676 55.6821 132.876 57.5313C132.23 59.0248 130.699 59.8725 129.152 59.7216" stroke="#151254" stroke-width="0.91635" stroke-linecap="round" stroke-linejoin="round"/>
<path d="M82.1506 43.7854L83.8965 40L83.5041 39.8484L81.7581 43.6338L82.1506 43.7854Z" stroke="#151254" stroke-width="0.91635" stroke-linecap="round" stroke-linejoin="round"/>
<path d="M84.8183 47.8215C84.641 48.183 84.2445 48.3642 84.0171 48.1809C82.6153 47.011 82.3486 44.5756 83.5065 42.2152C84.6643 39.8549 86.8764 38.3244 88.8258 38.378C89.1392 38.3858 89.2645 38.7575 89.0846 39.1243L84.8183 47.8215V47.8215Z" stroke="#151254" stroke-width="0.91635" stroke-linecap="round" stroke-linejoin="round"/>
<path d="M88.3547 41.875C88.0289 42.5258 88.1816 43.2029 88.6958 43.3872C89.21 43.5716 89.8909 43.1934 90.2167 42.5426C90.5425 41.8918 90.3898 41.2148 89.8756 41.0305C89.3614 40.8461 88.6805 41.2242 88.3547 41.875Z" stroke="#151254" stroke-width="0.91635" stroke-linecap="round" stroke-linejoin="round"/>
<path d="M86.7063 45.9087C86.3805 46.5595 86.5332 47.2365 87.0474 47.4209C87.5615 47.6053 88.2425 47.2271 88.5683 46.5763C88.8941 45.9255 88.7414 45.2485 88.2272 45.0641C87.713 44.8798 87.0321 45.2579 86.7063 45.9087Z" stroke="#151254" stroke-width="0.91635" stroke-linecap="round" stroke-linejoin="round"/>
<path d="M87.4619 44.0441C87.2164 44.5345 87.3315 45.0447 87.7189 45.1836C88.1064 45.3225 88.6195 45.0376 88.865 44.5471C89.1105 44.0567 88.9955 43.5466 88.608 43.4076C88.2205 43.2687 87.7074 43.5537 87.4619 44.0441Z" stroke="#151254" stroke-width="0.91635" stroke-linecap="round" stroke-linejoin="round"/>
<path d="M90.5288 42.2206L92.9219 40.9492" stroke="#151254" stroke-width="0.91635" stroke-linecap="round" stroke-linejoin="round"/>
<path d="M87.4863 39.106L84.0528 47.0444" stroke="#151254" stroke-width="0.91635" stroke-linecap="round" stroke-linejoin="round"/>
<path d="M116.122 33.031L120.348 23.8286C119.69 23.5713 118.845 24.0487 118.455 24.8973L115.638 31.0323C115.248 31.8809 115.464 32.7737 116.122 33.031Z" stroke="#151254" stroke-width="0.91635" stroke-linecap="round" stroke-linejoin="round"/>
<path d="M122.611 30.2156C123.747 27.8657 123.119 25.3849 121.207 24.6718L120.775 24.5105L116.662 33.0168L117.095 33.1782C119.006 33.8912 121.475 32.5654 122.611 30.2156Z" stroke="#151254" stroke-width="0.91635" stroke-linecap="round" stroke-linejoin="round"/>
<path d="M122.646 30.385C122.386 30.9163 122.53 31.4779 122.966 31.6391C123.403 31.8004 123.968 31.5004 124.228 30.969C124.488 30.4376 124.344 29.8761 123.907 29.7148C123.47 29.5535 122.906 29.8536 122.646 30.385Z" fill="#201D67"/>
<path d="M139.04 0.0649414C138.354 1.41652 137.144 2.54396 135.55 3.16306C133.971 3.77644 132.301 3.76938 130.851 3.25615" stroke="#151254" stroke-width="0.91635" stroke-linecap="round" stroke-linejoin="round"/>
<path d="M130.276 3.68687L130.391 3.00579L131.559 -3.90602C131.717 -4.83633 132.792 -5.24976 133.557 -4.6729L135.181 -3.45603L135.284 -3.37639L136.695 -2.31593L136.831 -2.21619L139.196 -0.433234L139.771 0.00300015C140.326 0.418432 140.467 1.18507 140.101 1.75339C139.204 3.15127 137.897 4.26713 136.26 4.90336C134.636 5.5389 132.906 5.60125 131.273 5.19381C130.604 5.0268 130.163 4.36294 130.276 3.68687Z" stroke="#151254" stroke-width="0.91635" stroke-linecap="round" stroke-linejoin="round"/>
<path d="M133.523 0.59822C133.331 1.04107 133.542 1.55639 133.993 1.74921C134.444 1.94204 134.965 1.73934 135.156 1.29649C135.348 0.853636 135.137 0.338316 134.686 0.145495C134.235 -0.047327 133.715 0.155367 133.523 0.59822Z" stroke="#151254" stroke-width="0.91635" stroke-linecap="round" stroke-linejoin="round"/>
<path d="M100.918 78.955C100.74 77.6799 100.994 76.1322 101.722 74.5955C102.446 73.0691 103.507 71.8288 104.66 71.042" stroke="#151254" stroke-width="0.91635" stroke-linecap="round" stroke-linejoin="round"/>
<path d="M103.435 70.6019C102.257 71.6067 101.233 72.8783 100.482 74.3458C99.6026 76.066 99.2234 77.8181 99.2952 79.4126C99.3249 80.0587 99.8389 80.42 100.47 80.2336L101.131 80.0381L103.835 79.218C103.835 79.218 105.759 78.6368 107.572 78.0895C108.449 77.8249 109.03 76.6941 108.653 75.9907L105.857 70.7605L105.58 70.2452C105.306 69.7372 104.627 69.6815 104.043 70.1228C103.836 70.2677 103.633 70.434 103.435 70.6019Z" stroke="#151254" stroke-width="0.91635" stroke-linecap="round" stroke-linejoin="round"/>
<path d="M104.681 73.7206C104.793 73.6014 104.87 73.4497 104.894 73.2994C104.909 73.2187 104.907 73.1516 104.896 73.0815C104.864 72.9509 104.786 72.8503 104.672 72.81C104.554 72.7681 104.421 72.787 104.284 72.8642C104.147 72.9414 104.035 73.0606 103.958 73.2123C103.882 73.3639 103.858 73.5142 103.887 73.6504C103.916 73.7866 103.997 73.8816 104.11 73.9219C104.224 73.9623 104.365 73.9393 104.499 73.8677C104.568 73.8327 104.63 73.7818 104.681 73.7206Z" fill="#201D67"/>
<path d="M103.332 75.4838C103.443 75.3646 103.52 75.2129 103.544 75.0626C103.556 74.9875 103.557 74.9148 103.546 74.8447C103.514 74.7141 103.436 74.6135 103.322 74.5732C103.204 74.5312 103.071 74.5501 102.934 74.6273C102.797 74.7045 102.685 74.8238 102.609 74.9754C102.532 75.1271 102.508 75.2774 102.537 75.4136C102.566 75.5498 102.643 75.6432 102.761 75.6851C102.874 75.7255 103.015 75.7025 103.149 75.6309C103.214 75.5944 103.273 75.5491 103.332 75.4838Z" fill="#201D67"/>
<path d="M102.789 77.8291C103.056 77.6788 103.243 77.3082 103.186 77.0431C103.154 76.9125 103.076 76.812 102.963 76.7716C102.845 76.7297 102.711 76.7486 102.574 76.8258C102.438 76.903 102.326 77.0222 102.249 77.1738C102.212 77.2468 102.189 77.3244 102.179 77.3939C102.167 77.4691 102.167 77.5417 102.178 77.6118C102.207 77.7479 102.283 77.8413 102.401 77.8832C102.513 77.9164 102.658 77.895 102.789 77.8291Z" fill="#201D67"/>
<path d="M105.006 77.7546C105.077 77.7467 105.141 77.723 105.21 77.6879C105.477 77.5376 105.664 77.1671 105.607 76.902C105.589 76.8359 105.565 76.7811 105.522 76.7329C105.484 76.6862 105.436 76.6491 105.383 76.6305C105.327 76.6103 105.261 76.607 105.199 76.618C105.132 76.6275 105.065 76.6497 104.995 76.6847C104.858 76.7619 104.747 76.8811 104.67 77.0327C104.633 77.1057 104.61 77.1833 104.6 77.2528C104.588 77.3279 104.587 77.4006 104.598 77.4707C104.628 77.6068 104.704 77.7002 104.822 77.7421C104.875 77.7608 104.94 77.7641 105.006 77.7546Z" fill="#201D67"/>
<path d="M105.863 75.7737C105.93 75.7643 105.998 75.7421 106.067 75.7071C106.336 75.5512 106.523 75.1809 106.464 74.9215C106.445 74.8554 106.422 74.8006 106.379 74.7524C106.341 74.7057 106.292 74.6687 106.24 74.6501C106.122 74.6082 105.989 74.6271 105.852 74.7043C105.785 74.7464 105.723 74.7973 105.667 74.8569C105.611 74.9165 105.561 74.9848 105.524 75.0577C105.448 75.2092 105.423 75.3594 105.453 75.4955C105.471 75.5615 105.499 75.6179 105.537 75.6646C105.573 75.7169 105.624 75.7482 105.676 75.7669C105.731 75.7799 105.794 75.7888 105.863 75.7737Z" fill="#201D67"/>
<path d="M107.408 76.5473C107.272 76.6245 107.16 76.7437 107.083 76.8953C107.046 76.9682 107.023 77.0459 107.013 77.1154C107.001 77.1905 107.001 77.2631 107.012 77.3332C107.03 77.3993 107.058 77.4557 107.096 77.5023C107.134 77.549 107.183 77.5861 107.235 77.6047C107.353 77.6466 107.489 77.6221 107.623 77.5505C107.821 77.4352 107.986 77.2093 108.021 76.9768C108.036 76.896 108.034 76.829 108.023 76.7589C107.991 76.6284 107.913 76.5278 107.799 76.4875C107.743 76.4673 107.677 76.464 107.615 76.475C107.546 76.4901 107.478 76.5123 107.408 76.5473Z" fill="#201D67"/>
<path d="M44.9621 35.7026C44.784 34.4275 45.0375 32.8798 45.7662 31.343C46.49 29.8166 47.5513 28.5763 48.7041 27.7896" stroke="#151254" stroke-width="0.91635" stroke-linecap="round" stroke-linejoin="round"/>
<path d="M47.4797 27.3494C46.3016 28.3543 45.2778 29.6258 44.5264 31.0934C43.6475 32.8136 43.2683 34.5656 43.3401 36.1601C43.3698 36.8062 43.8838 37.1675 44.5145 36.9811L45.1755 36.7856L47.8801 35.9655C47.8801 35.9655 49.8037 35.3844 51.6174 34.837C52.4938 34.5724 53.0751 33.4417 52.6978 32.7383L49.9016 27.508L49.6253 26.9928C49.3505 26.4847 48.6719 26.429 48.0879 26.8704C47.8806 27.0152 47.678 27.1816 47.4797 27.3494Z" stroke="#151254" stroke-width="0.91635" stroke-linecap="round" stroke-linejoin="round"/>
<path d="M48.7281 30.4682C48.8399 30.3489 48.9164 30.1973 48.9408 30.047C48.9558 29.9662 48.9536 29.8992 48.9426 29.8291C48.9106 29.6985 48.8325 29.5979 48.7189 29.5575C48.6009 29.5156 48.4676 29.5345 48.3306 29.6117C48.1937 29.6889 48.0819 29.8082 48.0054 29.9598C47.9288 30.1114 47.9044 30.2618 47.9336 30.398C47.9628 30.5342 48.0437 30.6291 48.1573 30.6695C48.271 30.7098 48.4114 30.6869 48.5455 30.6153C48.6148 30.5803 48.6766 30.5294 48.7281 30.4682Z" fill="#201D67"/>
<path d="M47.3794 32.2314C47.4912 32.1121 47.5678 31.9605 47.5922 31.8102C47.6043 31.735 47.6049 31.6624 47.594 31.5922C47.562 31.4617 47.4839 31.3611 47.3702 31.3207C47.2522 31.2788 47.119 31.2977 46.982 31.3749C46.8451 31.4521 46.7333 31.5714 46.6567 31.723C46.5801 31.8746 46.5558 32.0249 46.585 32.1611C46.6141 32.2973 46.6907 32.3907 46.8087 32.4327C46.9223 32.473 47.0628 32.4501 47.1969 32.3785C47.2618 32.3419 47.3207 32.2966 47.3794 32.2314Z" fill="#201D67"/>
<path d="M46.8371 34.5766C47.1037 34.4263 47.2908 34.0558 47.234 33.7906C47.202 33.6601 47.124 33.5595 47.0104 33.5192C46.8924 33.4773 46.7592 33.4962 46.6223 33.5734C46.4854 33.6505 46.3737 33.7698 46.2971 33.9213C46.2603 33.9943 46.2365 34.072 46.2272 34.1415C46.215 34.2166 46.2144 34.2892 46.2254 34.3593C46.2545 34.4955 46.3311 34.5889 46.449 34.6308C46.5611 34.664 46.7059 34.6426 46.8371 34.5766Z" fill="#201D67"/>
<path d="M49.0533 34.5022C49.1243 34.4943 49.1878 34.4705 49.257 34.4355C49.5236 34.2852 49.7107 33.9147 49.6539 33.6495C49.6358 33.5835 49.6119 33.5287 49.5693 33.4804C49.531 33.4337 49.4827 33.3967 49.4303 33.3781C49.3735 33.3579 49.3082 33.3546 49.246 33.3656C49.1793 33.375 49.1114 33.3973 49.0422 33.4323C48.9053 33.5094 48.7936 33.6287 48.717 33.7802C48.6802 33.8532 48.6564 33.9309 48.6471 34.0004C48.6349 34.0755 48.6343 34.1481 48.6453 34.2182C48.6745 34.3544 48.751 34.4478 48.8689 34.4897C48.9214 34.5083 48.9867 34.5116 49.0533 34.5022Z" fill="#201D67"/>
<path d="M49.9101 32.5213C49.9767 32.5119 50.0446 32.4896 50.1138 32.4547C50.383 32.2988 50.5701 31.9284 50.5105 31.669C50.4923 31.603 50.4685 31.5482 50.4259 31.5C50.3876 31.4533 50.3394 31.4163 50.2869 31.3977C50.169 31.3558 50.0359 31.3747 49.899 31.4518C49.8314 31.494 49.7697 31.5449 49.7138 31.6044C49.658 31.664 49.608 31.7323 49.5712 31.8053C49.4947 31.9568 49.4703 32.107 49.4995 32.2431C49.5177 32.3091 49.5459 32.3655 49.5841 32.4121C49.6195 32.4644 49.6706 32.4958 49.723 32.5144C49.7783 32.5274 49.8407 32.5364 49.9101 32.5213Z" fill="#201D67"/>
<path d="M51.4553 33.2948C51.3184 33.372 51.2067 33.4912 51.1301 33.6428C51.0933 33.7158 51.0695 33.7934 51.0602 33.8629C51.048 33.9381 51.0474 34.0107 51.0584 34.0808C51.0766 34.1468 51.1048 34.2032 51.1431 34.2499C51.1813 34.2966 51.2296 34.3336 51.282 34.3522C51.4 34.3941 51.5361 34.3696 51.6701 34.2981C51.8675 34.1828 52.0331 33.9569 52.0681 33.7243C52.0831 33.6436 52.0808 33.5766 52.0699 33.5065C52.0379 33.376 51.9598 33.2754 51.8462 33.2351C51.7894 33.2149 51.7241 33.2116 51.6619 33.2225C51.5924 33.2376 51.5245 33.2598 51.4553 33.2948Z" fill="#201D67"/>
<path d="M84.1783 15.2276C83.1502 14.0695 82.8216 12.385 83.4762 10.8715C84.3801 8.78165 86.8237 7.8133 88.9256 8.712C90.7956 9.51156 91.7723 11.5206 91.3275 13.4327C90.1674 13.0079 88.8772 13.4361 88.2023 14.4303C88.0749 14.352 87.9403 14.2766 87.7991 14.2163C86.4785 13.6516 84.9736 14.1068 84.1783 15.2276Z" stroke="#151254" stroke-width="0.91635" stroke-linecap="round" stroke-linejoin="round"/>
<path d="M89.9847 11.7649C90.1487 11.4294 90.0572 11.0709 89.7815 10.9691C89.5059 10.8673 89.1454 11.059 88.9814 11.3945C88.8173 11.7301 88.9088 12.0885 89.1845 12.1903C89.4647 12.2937 89.8206 12.1005 89.9847 11.7649Z" fill="#201D67"/>
<path d="M93.4349 11.7854C93.5989 11.4498 93.5074 11.0914 93.2317 10.9896C92.956 10.8878 92.5956 11.0795 92.4316 11.415C92.2675 11.7506 92.359 12.109 92.6347 12.2108C92.9176 12.3088 93.2708 12.121 93.4349 11.7854Z" fill="#201D67"/>
<path d="M87.5658 12.6482C87.7298 12.3126 87.6383 11.9542 87.3626 11.8524C87.0869 11.7506 86.7265 11.9423 86.5624 12.2778C86.3984 12.6134 86.4899 12.9718 86.7656 13.0736C87.0458 13.177 87.4017 12.9837 87.5658 12.6482Z" fill="#201D67"/>
<path d="M85.1728 12.2267C85.1728 12.2267 85.1578 12.0956 85.1357 11.9258C85.1164 11.7632 85.0986 11.6249 85.0986 11.6249C85.0986 11.6249 85.1136 11.756 85.1357 11.9258C85.16 12.0906 85.1728 12.2267 85.1728 12.2267Z" stroke="#151254" stroke-width="0.91635" stroke-linecap="round" stroke-linejoin="round"/>
<path d="M87.7217 10.293C87.7217 10.293 87.6214 10.3867 87.5002 10.5011C87.3791 10.6156 87.2788 10.7093 87.2788 10.7093C87.2788 10.7093 87.3791 10.6156 87.5002 10.5011C87.6214 10.3867 87.7217 10.293 87.7217 10.293Z" stroke="#151254" stroke-width="0.91635" stroke-linecap="round" stroke-linejoin="round"/>
<path d="M91.9675 9.16385C91.9675 9.16385 92.0142 9.29069 92.0723 9.4462C92.1305 9.60172 92.1772 9.72857 92.1772 9.72857C92.1772 9.72857 92.1305 9.60172 92.0723 9.4462C92.0142 9.29069 91.9675 9.16385 91.9675 9.16385Z" stroke="#151254" stroke-width="0.91635" stroke-linecap="round" stroke-linejoin="round"/>
<path d="M89.379 7.45763C90.1993 7.19073 91.1121 7.20688 91.9639 7.5711C93.8239 8.36635 94.6829 10.5092 93.8831 12.3585C93.2371 13.852 91.7058 14.6996 90.1584 14.5487" stroke="#151254" stroke-width="0.91635" stroke-linecap="round" stroke-linejoin="round"/>
<path d="M77.9433 91.2701C78.1873 90.9324 78.3672 90.5551 78.4668 90.1726C78.5663 89.7902 78.5823 89.4148 78.5133 89.0806C78.4799 88.9376 78.3915 88.8328 78.2669 88.7885C78.1423 88.7443 77.9911 88.7639 77.8454 88.8433L77.0079 89.299" stroke="#151254" stroke-width="0.91635" stroke-linecap="round" stroke-linejoin="round"/>
<path d="M72.5006 93.3626C72.1764 93.3386 71.8882 93.2185 71.6623 93.0131C71.4364 92.8077 71.2798 92.5235 71.2066 92.1862C71.1908 92.1146 71.1895 92.0355 71.2027 91.9536C71.216 91.8718 71.2435 91.7887 71.2836 91.7091C71.3238 91.6296 71.3758 91.5552 71.4368 91.4903C71.4977 91.4253 71.5663 91.3711 71.6386 91.3308L72.4859 90.8618" stroke="#151254" stroke-width="0.91635" stroke-linecap="round" stroke-linejoin="round"/>
<path d="M73.0767 88.2697C72.6741 88.3999 72.281 88.4051 71.9433 88.2846C71.7152 88.2034 71.5188 88.065 71.3653 87.8774C71.2118 87.6898 71.1043 87.4567 71.0491 87.1916C71.0412 87.1425 71.0517 87.086 71.0784 87.033C71.1052 86.9801 71.1463 86.9344 71.1938 86.905C71.4317 86.7727 71.6767 86.6866 71.9159 86.6512C72.1001 86.607 72.2804 86.595 72.4503 86.6157C72.55 86.636 72.6439 86.6693 72.7306 86.7153C73.1054 86.9675 73.3527 87.3838 73.4341 87.8995C73.3135 87.4054 73.3584 86.8285 73.5621 86.2551C73.6136 86.1323 73.6744 86.0119 73.7437 85.8955C73.8729 85.7095 74.0217 85.5389 74.1851 85.3895C74.3967 85.1795 74.6314 85.0063 74.8765 84.8796C74.925 84.8549 74.9748 84.8494 75.016 84.8641C75.0573 84.8787 75.0872 84.9125 75.0998 84.9589C75.2079 85.4932 75.1019 86.1217 74.8045 86.7096C74.5846 87.1401 74.273 87.5264 73.9069 87.8223" stroke="#151254" stroke-width="0.91635" stroke-linecap="round" stroke-linejoin="round"/>
<path d="M76.4115 96.6495C76.5044 96.6041 76.5954 96.5475 76.6824 96.4809C76.9137 96.2907 77.1216 96.0603 77.294 95.8032C77.4663 95.546 77.5997 95.2674 77.6862 94.9835C77.9304 94.3266 78.0761 93.6608 78.1165 93.0175C78.2513 91.8289 78.075 90.7274 77.6085 89.8442C77.1031 89.0285 76.394 88.4166 75.5349 88.0548C75.4736 88.033 75.0624 87.7744 75.0006 87.8253L74.1872 88.2713C74.1192 88.2935 73.8725 88.8945 73.8547 88.9809C73.3026 90.1283 72.9679 91.3264 72.8769 92.4806C72.8323 93.6419 73.1031 94.6863 73.6558 95.4853C74.207 96.2637 75.1967 97.2774 76.4115 96.6495Z" stroke="#151254" stroke-width="0.91635" stroke-linecap="round" stroke-linejoin="round"/>
<path d="M78.1152 92.5557C77.4022 92.5713 76.6488 92.7884 75.9199 93.1882C75.191 93.5908 74.5098 94.1665 73.9367 94.8642" stroke="#151254" stroke-width="0.91635" stroke-linecap="round" stroke-linejoin="round"/>
<path d="M77.0688 95.0645C77.1376 95.0271 77.203 94.9763 77.261 94.915C77.3191 94.8537 77.3687 94.7831 77.4068 94.7077C77.4449 94.6322 77.4708 94.5532 77.4829 94.4756C77.495 94.3979 77.4931 94.3231 77.4772 94.2557C77.454 94.1573 77.4021 94.0782 77.3278 94.0282C77.2535 93.9782 77.1602 93.9596 77.0595 93.9747C76.9588 93.9897 76.8551 94.0378 76.7613 94.1129C76.6676 94.188 76.5879 94.2868 76.5323 94.397C76.4766 94.5072 76.4474 94.6239 76.4484 94.7326C76.4493 94.8414 76.4803 94.9373 76.5375 95.0085C76.5947 95.0796 76.6756 95.1229 76.77 95.1328C76.8645 95.1428 76.9684 95.119 77.0688 95.0645Z" fill="#201D67"/>
<path d="M27.3633 50.9766C27.6072 50.6389 27.7871 50.2616 27.8867 49.8792C27.9862 49.4967 28.0022 49.1213 27.9332 48.7872C27.8998 48.6441 27.8114 48.5394 27.6868 48.4951C27.5622 48.4508 27.411 48.4704 27.2653 48.5499L26.4278 49.0056" stroke="#151254" stroke-width="0.91635" stroke-linecap="round" stroke-linejoin="round"/>
<path d="M21.9205 53.0691C21.5963 53.0451 21.3082 52.925 21.0822 52.7196C20.8563 52.5142 20.6997 52.23 20.6265 51.8927C20.6107 51.8211 20.6094 51.7421 20.6227 51.6602C20.6359 51.5783 20.6634 51.4952 20.7035 51.4157C20.7437 51.3361 20.7958 51.2618 20.8567 51.1968C20.9176 51.1319 20.9862 51.0777 21.0585 51.0373L21.9058 50.5683" stroke="#151254" stroke-width="0.91635" stroke-linecap="round" stroke-linejoin="round"/>
<path d="M22.4966 47.9762C22.094 48.1065 21.7009 48.1117 21.3632 47.9911C21.1352 47.9099 20.9387 47.7716 20.7852 47.5839C20.6317 47.3963 20.5243 47.1632 20.469 46.8981C20.4611 46.849 20.4716 46.7925 20.4983 46.7396C20.5251 46.6866 20.5662 46.641 20.6137 46.6115C20.8516 46.4793 21.0966 46.3931 21.3359 46.3577C21.52 46.3136 21.7003 46.3016 21.8703 46.3222C21.9699 46.3425 22.0639 46.3759 22.1505 46.4218C22.5254 46.674 22.7726 47.0903 22.854 47.6061C22.7334 47.112 22.7783 46.5351 22.982 45.9616C23.0336 45.8389 23.0944 45.7185 23.1636 45.602C23.2928 45.4161 23.4416 45.2455 23.6051 45.0961C23.8166 44.886 24.0514 44.7129 24.2964 44.5862C24.345 44.5615 24.3947 44.5559 24.436 44.5706C24.4772 44.5853 24.5071 44.6191 24.5198 44.6655C24.6278 45.1998 24.5218 45.8283 24.2244 46.4162C24.0045 46.8467 23.6929 47.2329 23.3268 47.5288" stroke="#151254" stroke-width="0.91635" stroke-linecap="round" stroke-linejoin="round"/>
<path d="M25.8314 56.3561C25.9243 56.3107 26.0153 56.254 26.1024 56.1875C26.3336 55.9972 26.5415 55.7668 26.7139 55.5097C26.8862 55.2526 27.0196 54.9739 27.1062 54.69C27.3503 54.0331 27.496 53.3673 27.5365 52.7241C27.6713 51.5354 27.4949 50.4339 27.0285 49.5508C26.523 48.735 25.8139 48.1231 24.9548 47.7613C24.8935 47.7396 24.4823 47.481 24.4205 47.5318L23.6071 47.9779C23.5391 48.0001 23.2924 48.6011 23.2746 48.6874C22.7226 49.8348 22.3878 51.0329 22.2969 52.1871C22.2522 53.3484 22.523 54.3928 23.0758 55.1918C23.6269 55.9703 24.6166 56.984 25.8314 56.3561Z" stroke="#151254" stroke-width="0.91635" stroke-linecap="round" stroke-linejoin="round"/>
<path d="M27.5352 52.2622C26.8221 52.2778 26.0687 52.4949 25.3399 52.8948C24.6109 53.2974 23.9297 53.873 23.3566 54.5707" stroke="#151254" stroke-width="0.91635" stroke-linecap="round" stroke-linejoin="round"/>
<path d="M26.4887 54.771C26.5575 54.7337 26.6229 54.6828 26.681 54.6215C26.739 54.5602 26.7886 54.4897 26.8267 54.4142C26.8649 54.3387 26.8908 54.2598 26.9028 54.1821C26.9149 54.1045 26.913 54.0297 26.8971 53.9623C26.874 53.8638 26.822 53.7847 26.7477 53.7347C26.6735 53.6848 26.5802 53.6661 26.4794 53.6812C26.3787 53.6963 26.275 53.7443 26.1812 53.8194C26.0875 53.8945 26.0078 53.9933 25.9522 54.1035C25.8965 54.2137 25.8674 54.3305 25.8683 54.4392C25.8692 54.5479 25.9002 54.6438 25.9574 54.715C26.0146 54.7862 26.0955 54.8294 26.19 54.8394C26.2844 54.8493 26.3883 54.8256 26.4887 54.771Z" fill="#201D67"/>
<path d="M5.70117 78.6348L-0.583783 79.1996L3.3057 83.3827" stroke="#151254" stroke-width="0.91635" stroke-linecap="round" stroke-linejoin="round"/>
<path d="M3.57525 84.5246C3.61425 84.4383 3.64513 84.3608 3.6702 84.287C3.85912 83.7037 3.60453 83.5142 3.92113 82.8137C4.27673 82.0269 4.63974 82.1693 4.99075 81.3927C5.34634 80.6059 4.98333 80.4635 5.33434 79.6868C5.65094 78.9863 5.96853 79.0273 6.29015 78.4901C6.32702 78.4269 6.36725 78.347 6.40625 78.2607" stroke="#151254" stroke-width="0.91635" stroke-linecap="round" stroke-linejoin="round"/>
<path d="M4.52176 84.6752C4.29325 84.5941 4.08694 84.469 3.92675 84.3019C4.11414 83.7522 3.80043 83.563 4.1278 82.9138C4.49678 82.1821 4.93265 82.3368 5.29608 81.6161C5.66506 80.8844 5.2292 80.7297 5.59264 80.009C5.92001 79.3598 6.29884 79.4099 6.64002 78.9213C6.89176 78.9069 7.14524 78.9385 7.37375 79.0196C8.57555 79.4461 8.91074 81.0569 8.12283 82.6193C7.33493 84.1818 5.72356 85.1017 4.52176 84.6752Z" stroke="#151254" stroke-width="0.91635" stroke-linecap="round" stroke-linejoin="round"/>
<path d="M3.17696 83.6773L5.40527 78.5254" stroke="#151254" stroke-width="0.91635" stroke-linecap="round" stroke-linejoin="round"/>
<path d="M49.8898 1.49097L51.6357 -2.29443L51.2433 -2.44608L49.4974 1.33932L49.8898 1.49097Z" stroke="#151254" stroke-width="0.91635" stroke-linecap="round" stroke-linejoin="round"/>
<path d="M52.5576 5.52708C52.3802 5.88857 51.9837 6.06976 51.7564 5.88647C50.3546 4.71654 50.0879 2.28115 51.2457 -0.0792048C52.4036 -2.43956 54.6156 -3.97001 56.5651 -3.91647C56.8785 -3.90861 57.0038 -3.53691 56.8238 -3.1701L52.5576 5.52708V5.52708Z" stroke="#151254" stroke-width="0.91635" stroke-linecap="round" stroke-linejoin="round"/>
<path d="M56.0959 -0.417449C55.7701 0.233351 55.9228 0.910371 56.437 1.09473C56.9512 1.27908 57.6321 0.900965 57.9579 0.250165C58.2837 -0.400636 58.131 -1.07767 57.6168 -1.26203C57.1026 -1.44639 56.4217 -1.06825 56.0959 -0.417449Z" stroke="#151254" stroke-width="0.91635" stroke-linecap="round" stroke-linejoin="round"/>
<path d="M54.4475 3.61623C54.1217 4.26703 54.2744 4.94406 54.7886 5.12842C55.3028 5.31278 55.9837 4.93464 56.3095 4.28384C56.6353 3.63304 56.4826 2.95602 55.9684 2.77166C55.4542 2.58731 54.7733 2.96542 54.4475 3.61623Z" stroke="#151254" stroke-width="0.91635" stroke-linecap="round" stroke-linejoin="round"/>
<path d="M55.2031 1.74914C54.9576 2.23956 55.0727 2.74975 55.4601 2.88867C55.8476 3.0276 56.3607 2.74264 56.6062 2.25223C56.8518 1.76181 56.7367 1.25164 56.3492 1.11272C55.9617 0.973793 55.4486 1.25873 55.2031 1.74914Z" stroke="#151254" stroke-width="0.91635" stroke-linecap="round" stroke-linejoin="round"/>
<path d="M58.268 -0.0768029L60.6611 -1.34814" stroke="#151254" stroke-width="0.91635" stroke-linecap="round" stroke-linejoin="round"/>
<path d="M55.2266 -3.18945L51.7931 4.74895" stroke="#151254" stroke-width="0.91635" stroke-linecap="round" stroke-linejoin="round"/>
<path d="M52.3164 104.619C51.6303 105.971 50.4199 107.098 48.8262 107.717C47.2469 108.331 45.5776 108.324 44.1272 107.81" stroke="#151254" stroke-width="0.91635" stroke-linecap="round" stroke-linejoin="round"/>
<path d="M43.5534 108.241L43.6688 107.56L44.8366 100.648C44.9941 99.7179 46.0689 99.3044 46.8347 99.8813L48.4586 101.098L48.5615 101.178L49.9723 102.238L50.1084 102.338L52.4729 104.121L53.0487 104.557C53.6037 104.973 53.7439 105.739 53.3787 106.308C52.4814 107.705 51.1745 108.821 49.5376 109.458C47.9128 110.093 46.1836 110.155 44.5501 109.748C43.8817 109.581 43.4402 108.917 43.5534 108.241Z" stroke="#151254" stroke-width="0.91635" stroke-linecap="round" stroke-linejoin="round"/>
<path d="M48.3903 102.315C48.2273 101.919 48.3078 101.484 48.5704 101.181L50.4102 102.561C50.2825 102.732 50.1137 102.874 49.8974 102.96C49.3013 103.192 48.6259 102.903 48.3903 102.315Z" stroke="#151254" stroke-width="0.91635" stroke-linecap="round" stroke-linejoin="round"/>
<path d="M45.2444 101.719C45.5693 101.768 45.8593 101.982 45.9908 102.299C46.1883 102.781 45.9542 103.323 45.4662 103.512C45.3077 103.575 45.139 103.592 44.9777 103.564" stroke="#151254" stroke-width="0.91635" stroke-linecap="round" stroke-linejoin="round"/>
<path d="M36.2931 81.2824L34.4167 73.9437C34.217 73.1625 33.4214 72.8688 32.6357 73.2862C31.85 73.7036 31.3769 74.6713 31.5767 75.4524L33.4531 82.7912C33.6528 83.5724 34.4484 83.8661 35.2341 83.4487C36.0198 83.0313 36.4928 82.0636 36.2931 81.2824Z" stroke="#151254" stroke-width="0.91635" stroke-linecap="round" stroke-linejoin="round"/>
<path d="M33.3633 74.9198C33.545 75.7655 33.2422 75.936 33.4211 76.7873C33.6027 77.6329 33.9055 77.4624 34.0915 78.3097C34.2732 79.1554 33.9676 79.3315 34.1492 80.1771C34.3309 81.0228 34.638 80.8539 34.8197 81.6996" stroke="#151254" stroke-width="0.91635" stroke-linecap="round" stroke-linejoin="round"/>
<path d="M37.7767 79.7726L36.3327 74.125C36.0926 73.1861 35.1388 72.834 34.1945 73.3356L36.5034 82.3661C37.4496 81.8716 38.0195 80.706 37.7767 79.7726Z" stroke="#151254" stroke-width="0.91635" stroke-linecap="round" stroke-linejoin="round"/>
<path d="M30.0904 76.964L31.5345 82.6117C31.7745 83.5506 32.7283 83.9027 33.6727 83.401L31.3637 74.3705C30.4176 74.865 29.8477 76.0306 30.0904 76.964Z" stroke="#151254" stroke-width="0.91635" stroke-linecap="round" stroke-linejoin="round"/>
<path d="M109.805 107.917L112.257 102.724C112.694 101.8 113.642 101.279 114.377 101.559L115.17 101.862L111.139 110.399L110.346 110.097C109.61 109.816 109.369 108.842 109.805 107.917Z" stroke="#151254" stroke-width="0.91635" stroke-linecap="round" stroke-linejoin="round"/>
<path d="M112.964 110.792L116.584 102.909C116.783 102.474 116.672 102.015 116.335 101.883C115.999 101.751 115.564 101.997 115.364 102.431L111.744 110.315C111.545 110.749 111.656 111.209 111.993 111.341C112.329 111.472 112.764 111.227 112.964 110.792Z" stroke="#151254" stroke-width="0.91635" stroke-linecap="round" stroke-linejoin="round"/>
<path d="M115.068 101.992C114.798 102.131 114.493 102.189 114.311 102.57C114.129 102.952 114.295 103.187 114.371 103.456" stroke="#151254" stroke-width="0.91635" stroke-linecap="round" stroke-linejoin="round"/>
<path d="M54.8158 62.4344L57.2679 57.2414C57.7043 56.3171 58.6523 55.7961 59.3875 56.0765L60.1807 56.3789L56.1495 64.9161L55.3564 64.6137C54.6211 64.3333 54.3793 63.3587 54.8158 62.4344Z" stroke="#151254" stroke-width="0.91635" stroke-linecap="round" stroke-linejoin="round"/>
<path d="M57.9747 65.3073L61.5945 57.424C61.7941 56.9895 61.6828 56.5298 61.3462 56.398C61.0096 56.2663 60.5744 56.5121 60.3749 56.9466L56.755 64.8298C56.5554 65.2644 56.6667 65.7241 57.0033 65.8559C57.3399 65.9876 57.7751 65.7418 57.9747 65.3073Z" stroke="#151254" stroke-width="0.91635" stroke-linecap="round" stroke-linejoin="round"/>
<path d="M63.6495 63.2844L63.9193 62.724C65.0012 60.477 64.4031 58.1064 62.5822 57.4246L62.3551 57.3396L58.17 66.0315L58.3971 66.1166C60.218 66.7983 62.5676 65.5314 63.6495 63.2844Z" stroke="#151254" stroke-width="0.91635" stroke-linecap="round" stroke-linejoin="round"/>
<path d="M60.0781 56.5083C59.8076 56.6469 59.5025 56.7047 59.3207 57.0862C59.1389 57.4678 59.3045 57.7027 59.3808 57.9717" stroke="#151254" stroke-width="0.91635" stroke-linecap="round" stroke-linejoin="round"/>
<path d="M58.043 61.2129C57.7725 61.3515 57.4675 61.4092 57.2858 61.7907C57.1015 62.1774 57.2671 62.4123 57.3434 62.6814" stroke="#151254" stroke-width="0.91635" stroke-linecap="round" stroke-linejoin="round"/>
<path d="M56.2248 64.1783C56.4176 63.7839 56.7407 63.7242 57.0273 63.5811" stroke="#151254" stroke-width="0.91635" stroke-linecap="round" stroke-linejoin="round"/>
<path d="M59.0596 58.8628C58.789 59.0014 58.4839 59.0592 58.3021 59.4407C58.1203 59.8223 58.286 60.0571 58.3623 60.3262" stroke="#151254" stroke-width="0.91635" stroke-linecap="round" stroke-linejoin="round"/>
</g>
<g opacity="0.25">
<path d="M7.37996 3.49724C7.28525 2.15467 7.67383 0.619958 8.57088 -0.80765C9.46198 -2.22568 10.6932 -3.2824 11.9883 -3.85596" stroke="#151254" stroke-width="0.91635" stroke-linecap="round" stroke-linejoin="round"/>
<path d="M10.5374 -4.62034C9.28175 -3.82731 8.16092 -2.73798 7.29864 -1.40152C6.28972 0.165294 5.77946 1.85608 5.73303 3.47151C5.71482 4.12618 6.20325 4.5838 6.84933 4.51248L7.52653 4.43763L10.2988 4.11107C10.2988 4.11107 12.2704 3.88097 14.1294 3.66458C15.0277 3.55992 15.6945 2.5306 15.3684 1.7544L12.9536 -4.01548L12.7149 -4.58404C12.4771 -5.14511 11.8009 -5.32591 11.1827 -4.98986C10.9642 -4.88244 10.7486 -4.75257 10.5374 -4.62034Z" stroke="#151254" stroke-width="0.91635" stroke-linecap="round" stroke-linejoin="round"/>
<path d="M10.1287 0.35045C10.2497 0.251182 10.3377 0.112892 10.3733 -0.0336874C10.391 -0.106977 10.397 -0.179875 10.3912 -0.252384C10.3688 -0.389523 10.2979 -0.505003 10.1869 -0.566509C10.0716 -0.63038 9.93657 -0.635939 9.79351 -0.58357C9.65045 -0.531202 9.5295 -0.431926 9.44147 -0.293637C9.35344 -0.155348 9.31788 -0.00877114 9.33705 0.13349C9.35622 0.275751 9.42607 0.38374 9.54134 0.447611C9.65234 0.509116 9.79494 0.511923 9.93474 0.464676C10.0025 0.43987 10.065 0.405205 10.1287 0.35045Z" fill="#201D67"/>
<path d="M9.28184 2.59614C9.56038 2.49419 9.77552 2.15623 9.7382 1.87925C9.71578 1.74214 9.64492 1.62669 9.53395 1.5652C9.41871 1.50134 9.28367 1.49579 9.14064 1.54814C8.99761 1.6005 8.87669 1.69974 8.78868 1.838C8.74631 1.90457 8.71673 1.97824 8.70222 2.04639C8.68444 2.11967 8.67847 2.19254 8.68429 2.26504C8.70345 2.40727 8.77329 2.51524 8.88853 2.57909C8.9985 2.6331 9.14533 2.63826 9.28184 2.59614Z" fill="#201D67"/>
<path d="M11.4905 2.80729C11.5623 2.81243 11.6278 2.80023 11.6998 2.77779C11.9783 2.67583 12.1935 2.33787 12.1562 2.0609C12.1428 1.99116 12.123 1.93167 12.0838 1.87532C12.0488 1.82133 12.0031 1.77522 11.9519 1.74684C11.8964 1.7161 11.8312 1.70072 11.7679 1.7003C11.7004 1.69753 11.6306 1.70736 11.5586 1.72979C11.4156 1.78215 11.2947 1.88139 11.2067 2.01965C11.1643 2.08622 11.1347 2.15988 11.1202 2.22804C11.1024 2.30131 11.0964 2.37419 11.1023 2.44668C11.1214 2.58891 11.1913 2.69689 11.3065 2.76074C11.3577 2.78912 11.423 2.80451 11.4905 2.80729Z" fill="#201D67"/>
<path d="M12.606 0.959864C12.6735 0.962641 12.7432 0.952816 12.8152 0.930387C13.097 0.823341 13.312 0.485479 13.2715 0.213708C13.2581 0.143992 13.2383 0.0845141 13.1991 0.0281815C13.1642 -0.0257867 13.1185 -0.0718843 13.0673 -0.100257C12.9521 -0.164095 12.8171 -0.169643 12.6741 -0.117302C12.6031 -0.0873893 12.5374 -0.047634 12.4769 0.00197412C12.4165 0.0515822 12.3613 0.11104 12.319 0.177589C12.231 0.315807 12.1954 0.462307 12.2146 0.604494C12.2279 0.67421 12.2521 0.736056 12.287 0.790024C12.3186 0.849111 12.3676 0.890086 12.4188 0.918459C12.4732 0.941712 12.5352 0.962207 12.606 0.959864Z" fill="#201D67"/>
<path d="M13.9684 1.91438C13.8254 1.96673 13.7045 2.06597 13.6165 2.20423C13.5741 2.2708 13.5445 2.34446 13.53 2.41261C13.5122 2.48588 13.5063 2.55876 13.5121 2.63125C13.5254 2.70099 13.5496 2.76285 13.5845 2.81684C13.6194 2.87082 13.6651 2.91693 13.7163 2.94531C13.8316 3.00916 13.9699 3.00959 14.1096 2.96236C14.3161 2.88284 14.499 2.6863 14.5513 2.459C14.5723 2.38061 14.5751 2.31284 14.5692 2.24035C14.5468 2.10325 14.476 1.9878 14.365 1.92631C14.3095 1.89557 14.2442 1.88018 14.181 1.87977C14.1102 1.88211 14.0404 1.89194 13.9684 1.91438Z" fill="#201D67"/>
<path d="M12.1563 33.2971L15.1799 28.4597C15.7181 27.5986 16.7386 27.2328 17.462 27.6416L18.2422 28.0825L13.2714 36.0352L12.4912 35.5942C11.7679 35.1854 11.6181 34.1581 12.1563 33.2971Z" stroke="#151254" stroke-width="0.91635" stroke-linecap="round" stroke-linejoin="round"/>
<path d="M14.9847 36.6476L19.5286 29.2949C19.7791 28.8896 19.709 28.4044 19.3723 28.212C19.0355 28.0195 18.5588 28.1924 18.3083 28.5977L13.7644 35.9504C13.5139 36.3557 13.584 36.8409 13.9207 37.0333C14.2575 37.2257 14.7342 37.0529 14.9847 36.6476Z" stroke="#151254" stroke-width="0.91635" stroke-linecap="round" stroke-linejoin="round"/>
<path d="M20.8498 35.4301L21.178 34.9092C22.4937 32.8205 22.1277 30.3272 20.3599 29.3355L20.1394 29.2118L15.05 37.2913L15.2705 37.415C17.0383 38.4067 19.5341 37.5188 20.8498 35.4301Z" stroke="#151254" stroke-width="0.91635" stroke-linecap="round" stroke-linejoin="round"/>
<path d="M18.1572 28.1753C17.8672 28.2684 17.5496 28.2737 17.3273 28.6284C17.105 28.9831 17.2521 29.2499 17.3046 29.5358" stroke="#151254" stroke-width="0.91635" stroke-linecap="round" stroke-linejoin="round"/>
<path d="M15.5068 32.5669C15.2169 32.66 14.8993 32.6653 14.6771 33.0199C14.4518 33.3795 14.5988 33.6463 14.6513 33.9321" stroke="#151254" stroke-width="0.91635" stroke-linecap="round" stroke-linejoin="round"/>
<path d="M13.3203 35.2445C13.5511 34.8796 13.8807 34.8742 14.1816 34.7783" stroke="#151254" stroke-width="0.91635" stroke-linecap="round" stroke-linejoin="round"/>
<path d="M16.8301 30.3721C16.5401 30.4652 16.2225 30.4705 16.0002 30.8252C15.7779 31.1799 15.925 31.4467 15.9774 31.7326" stroke="#151254" stroke-width="0.91635" stroke-linecap="round" stroke-linejoin="round"/>
</g>
<g opacity="0.25">
<path d="M295.214 36.2725L289.599 38.7109L295.741 40.925" stroke="#151254" stroke-width="0.91635" stroke-linecap="round" stroke-linejoin="round"/>
<path d="M296.073 41.8803C296.065 41.7874 296.055 41.7055 296.042 41.6291C295.939 41.029 295.701 40.9521 295.635 40.1979C295.562 39.3507 295.853 39.3443 295.78 38.508C295.706 37.6608 295.416 37.6673 295.343 36.8311C295.278 36.0768 295.5 35.9952 295.501 35.3873C295.5 35.3162 295.495 35.2287 295.487 35.1357" stroke="#151254" stroke-width="0.91635" stroke-linecap="round" stroke-linejoin="round"/>
<path d="M297.301 41.3095C297.048 41.3132 296.788 41.2722 296.544 41.1805C296.379 40.651 295.985 40.5895 295.884 39.9303C295.771 39.1872 296.254 39.1801 296.142 38.4482C296.029 37.7051 295.547 37.7122 295.435 36.9803C295.335 36.321 295.703 36.2428 295.712 35.7163C295.928 35.6236 296.173 35.5696 296.426 35.5659C297.757 35.5465 299.03 36.8158 299.271 38.4025C299.513 39.9893 298.631 41.29 297.301 41.3095Z" stroke="#151254" stroke-width="0.91635" stroke-linecap="round" stroke-linejoin="round"/>
<path d="M295.203 41.338L294.942 35.7363" stroke="#151254" stroke-width="0.91635" stroke-linecap="round" stroke-linejoin="round"/>
<path d="M297.413 93.9868L297.065 89.9375L296.645 89.9476L296.993 93.9969L297.413 93.9868Z" stroke="#151254" stroke-width="0.91635" stroke-linecap="round" stroke-linejoin="round"/>
<path d="M302.129 96.3218C302.168 96.6972 301.893 96.9905 301.568 96.9086C299.546 96.3691 297.879 94.3399 297.624 91.8891C297.368 89.4382 298.604 87.3496 300.506 86.7298C300.812 86.6295 301.147 86.9103 301.187 87.2912L302.129 96.3218V96.3218Z" stroke="#151254" stroke-width="0.91635" stroke-linecap="round" stroke-linejoin="round"/>
<path d="M301.93 89.536C302.001 90.1886 302.543 90.7081 303.14 90.6963C303.737 90.6844 304.163 90.1458 304.092 89.4932C304.021 88.8406 303.479 88.3211 302.882 88.3329C302.285 88.3447 301.859 88.8833 301.93 89.536Z" stroke="#151254" stroke-width="0.91635" stroke-linecap="round" stroke-linejoin="round"/>
<path d="M302.219 93.8807C302.29 94.5333 302.832 95.0528 303.429 95.041C304.026 95.0292 304.452 94.4905 304.381 93.8379C304.31 93.1853 303.768 92.6658 303.171 92.6776C302.574 92.6894 302.148 93.228 302.219 93.8807Z" stroke="#151254" stroke-width="0.91635" stroke-linecap="round" stroke-linejoin="round"/>
<path d="M302.103 91.8953C302.156 92.3871 302.564 92.7786 303.014 92.7697C303.464 92.7608 303.785 92.3549 303.732 91.8631C303.678 91.3713 303.27 90.9799 302.82 90.9888C302.37 90.9977 302.049 91.4035 302.103 91.8953Z" stroke="#151254" stroke-width="0.91635" stroke-linecap="round" stroke-linejoin="round"/>
<path d="M304.114 88.837L305.746 86.9443" stroke="#151254" stroke-width="0.91635" stroke-linecap="round" stroke-linejoin="round"/>
<path d="M300.028 87.5024L300.429 96.1343" stroke="#151254" stroke-width="0.91635" stroke-linecap="round" stroke-linejoin="round"/>
<path d="M260.626 102.8C259.795 101.727 259.214 100.252 259.072 98.6134C258.931 96.9859 259.248 95.4908 259.886 94.3672" stroke="#151254" stroke-width="0.91635" stroke-linecap="round" stroke-linejoin="round"/>
<path d="M258.016 94.5105C257.488 95.728 257.265 97.1192 257.42 98.5875C257.603 100.308 258.282 101.895 259.299 103.206C259.712 103.738 260.418 103.876 260.91 103.518L261.426 103.143L263.524 101.592C263.524 101.592 265.017 100.491 266.425 99.4532C267.106 98.9516 266.989 97.8195 266.21 97.3516L260.426 93.8689L259.855 93.5261C259.29 93.1888 258.609 93.3592 258.313 93.9152C258.201 94.1026 258.106 94.3066 258.016 94.5105Z" stroke="#151254" stroke-width="0.91635" stroke-linecap="round" stroke-linejoin="round"/>
<path d="M261.444 96.5895C261.48 96.4541 261.463 96.3028 261.397 96.1693C261.363 96.097 261.321 96.0417 261.269 95.9865C261.161 95.8876 261.026 95.8284 260.893 95.831C260.756 95.8336 260.639 95.892 260.554 96.0003C260.469 96.1086 260.433 96.244 260.45 96.3953C260.467 96.5465 260.533 96.68 260.642 96.7846C260.751 96.8891 260.885 96.9427 261.018 96.9401C261.151 96.9376 261.272 96.8735 261.357 96.7708C261.403 96.7194 261.431 96.6571 261.444 96.5895Z" fill="#201D67"/>
<path d="M261.007 98.7599C261.043 98.6245 261.026 98.4732 260.96 98.3398C260.927 98.273 260.884 98.2121 260.832 98.1569C260.723 98.058 260.589 97.9988 260.456 98.0014C260.318 98.004 260.202 98.0624 260.117 98.1707C260.032 98.279 259.996 98.4144 260.013 98.5657C260.03 98.7169 260.096 98.8504 260.205 98.955C260.314 99.0595 260.443 99.1132 260.58 99.1106C260.713 99.108 260.834 99.0439 260.92 98.9412C260.96 98.8899 260.99 98.8332 261.007 98.7599Z" fill="#201D67"/>
<path d="M261.562 101.076C261.728 100.865 261.686 100.496 261.474 100.292C261.366 100.193 261.231 100.134 261.099 100.137C260.961 100.139 260.844 100.198 260.759 100.306C260.674 100.414 260.638 100.55 260.655 100.701C260.664 100.774 260.687 100.846 260.719 100.907C260.753 100.974 260.795 101.035 260.847 101.09C260.956 101.195 261.085 101.248 261.223 101.246C261.35 101.238 261.476 101.173 261.562 101.076Z" fill="#201D67"/>
<path d="M263.522 100.019C263.585 99.9897 263.632 99.9495 263.677 99.8981C263.843 99.6872 263.802 99.3175 263.589 99.1139C263.533 99.0645 263.477 99.0262 263.408 98.9995C263.343 98.9727 263.275 98.9571 263.214 98.9583C263.147 98.9596 263.083 98.9777 263.03 99.0068C262.972 99.036 262.92 99.0762 262.875 99.1276C262.79 99.2359 262.754 99.3713 262.771 99.5226C262.779 99.5954 262.802 99.6679 262.835 99.729C262.868 99.7958 262.91 99.8567 262.963 99.9118C263.072 100.016 263.2 100.07 263.338 100.067C263.4 100.066 263.464 100.048 263.522 100.019Z" fill="#201D67"/>
<path d="M263.422 97.865C263.48 97.8358 263.532 97.7955 263.577 97.7442C263.742 97.5277 263.7 97.1581 263.489 96.9601C263.432 96.9106 263.377 96.8724 263.307 96.8457C263.243 96.8189 263.175 96.8033 263.113 96.8045C262.976 96.8072 262.859 96.8655 262.774 96.9738C262.735 97.0307 262.706 97.093 262.688 97.1607C262.67 97.2284 262.663 97.3015 262.671 97.3743C262.688 97.5255 262.754 97.6589 262.863 97.7635C262.92 97.8129 262.98 97.851 263.045 97.8779C263.11 97.9103 263.177 97.9202 263.238 97.919C263.299 97.9123 263.364 97.8998 263.422 97.865Z" fill="#201D67"/>
<path d="M264.985 97.9531C264.9 98.0614 264.864 98.1968 264.881 98.3481C264.889 98.4209 264.912 98.4934 264.945 98.5545C264.978 98.6213 265.021 98.6822 265.073 98.7373C265.13 98.7868 265.19 98.8249 265.255 98.8517C265.319 98.8786 265.387 98.8941 265.449 98.8929C265.586 98.8903 265.702 98.8263 265.788 98.7236C265.908 98.5641 265.932 98.3223 265.827 98.1166C265.793 98.0443 265.751 97.9889 265.699 97.9338C265.591 97.8348 265.456 97.7757 265.323 97.7782C265.257 97.7795 265.193 97.7976 265.139 97.8267C265.082 97.8615 265.03 97.9018 264.985 97.9531Z" fill="#201D67"/>
<path d="M286.557 67.4626C285.123 66.8677 284.087 65.4954 284.011 63.8496C283.905 61.5772 285.678 59.6444 287.963 59.5394C289.997 59.446 291.758 60.8286 292.199 62.7417C290.968 62.8637 289.996 63.8095 289.826 64.9969C289.677 64.9819 289.523 64.9726 289.369 64.9797C287.933 65.0456 286.78 66.1089 286.557 67.4626Z" stroke="#151254" stroke-width="0.91635" stroke-linecap="round" stroke-linejoin="round"/>
<path d="M290.316 61.86C290.291 61.5216 290.004 61.2518 289.679 61.2611C289.354 61.2704 289.108 61.5554 289.133 61.8939C289.158 62.2323 289.445 62.5021 289.77 62.4928C290.1 62.4833 290.341 62.1984 290.316 61.86Z" fill="#201D67"/>
<path d="M293.427 60.379C293.402 60.0406 293.116 59.7708 292.791 59.7801C292.466 59.7894 292.22 60.0745 292.245 60.4129C292.27 60.7514 292.556 61.0211 292.881 61.0118C293.211 60.9968 293.452 60.7175 293.427 60.379Z" fill="#201D67"/>
<path d="M288.528 63.7072C288.503 63.3687 288.216 63.0989 287.891 63.1083C287.566 63.1176 287.32 63.4026 287.345 63.741C287.37 64.0795 287.657 64.3493 287.982 64.34C288.312 64.3305 288.553 64.0456 288.528 63.7072Z" fill="#201D67"/>
<path d="M286.131 64.3303C286.131 64.3303 286.06 64.2189 285.965 64.0758C285.876 63.9379 285.8 63.8212 285.8 63.8212C285.8 63.8212 285.871 63.9327 285.965 64.0758C286.059 64.2134 286.131 64.3303 286.131 64.3303Z" stroke="#151254" stroke-width="0.91635" stroke-linecap="round" stroke-linejoin="round"/>
<path d="M287.575 61.4854C287.575 61.4854 287.526 61.6132 287.468 61.7688C287.409 61.9244 287.36 62.0523 287.36 62.0523C287.36 62.0523 287.409 61.9244 287.468 61.7688C287.526 61.6132 287.575 61.4854 287.575 61.4854Z" stroke="#151254" stroke-width="0.91635" stroke-linecap="round" stroke-linejoin="round"/>
<path d="M290.897 58.6246C290.897 58.6246 290.995 58.7184 291.115 58.833C291.236 58.9476 291.334 59.0414 291.334 59.0414C291.334 59.0414 291.236 58.9476 291.115 58.833C290.995 58.7184 290.897 58.6246 290.897 58.6246Z" stroke="#151254" stroke-width="0.91635" stroke-linecap="round" stroke-linejoin="round"/>
<path d="M287.819 58.2133C288.44 57.6168 289.268 57.2347 290.194 57.1921C292.217 57.0992 293.931 58.6533 294.025 60.6642C294.1 62.2882 293.095 63.716 291.637 64.2527" stroke="#151254" stroke-width="0.91635" stroke-linecap="round" stroke-linejoin="round"/>
<path d="M250.047 12.1309L244.432 14.5693L250.574 16.7834" stroke="#151254" stroke-width="0.91635" stroke-linecap="round" stroke-linejoin="round"/>
<path d="M250.907 17.7353C250.899 17.6424 250.889 17.5604 250.876 17.484C250.773 16.884 250.535 16.8071 250.469 16.0529C250.396 15.2057 250.687 15.1992 250.614 14.363C250.54 13.5158 250.25 13.5223 250.177 12.6861C250.112 11.9318 250.334 11.8502 250.335 11.2423C250.334 11.1711 250.329 11.0836 250.321 10.9907" stroke="#151254" stroke-width="0.91635" stroke-linecap="round" stroke-linejoin="round"/>
<path d="M252.135 17.1644C251.882 17.1681 251.622 17.1271 251.378 17.0355C251.213 16.506 250.819 16.4445 250.718 15.7852C250.605 15.0421 251.088 15.0351 250.976 14.3032C250.863 13.5601 250.381 13.5671 250.269 12.8352C250.169 12.176 250.537 12.0978 250.546 11.5713C250.762 11.4785 251.007 11.4246 251.26 11.4209C252.591 11.4015 253.864 12.6708 254.105 14.2575C254.347 15.8443 253.465 17.145 252.135 17.1644Z" stroke="#151254" stroke-width="0.91635" stroke-linecap="round" stroke-linejoin="round"/>
<path d="M250.036 17.1964L249.775 11.5947" stroke="#151254" stroke-width="0.91635" stroke-linecap="round" stroke-linejoin="round"/>
<path d="M249.808 69.9595L249.46 65.9102L249.04 65.9203L249.388 69.9696L249.808 69.9595Z" stroke="#151254" stroke-width="0.91635" stroke-linecap="round" stroke-linejoin="round"/>
<path d="M254.524 72.2945C254.563 72.6698 254.287 72.9631 253.963 72.8813C251.94 72.3418 250.274 70.3126 250.018 67.8617C249.762 65.4109 250.999 63.3222 252.901 62.7025C253.206 62.6022 253.542 62.883 253.581 63.2639L254.524 72.2945V72.2945Z" stroke="#151254" stroke-width="0.91635" stroke-linecap="round" stroke-linejoin="round"/>
<path d="M254.326 65.5062C254.397 66.1588 254.939 66.6783 255.536 66.6665C256.133 66.6547 256.559 66.116 256.488 65.4634C256.417 64.8108 255.875 64.2913 255.278 64.3031C254.681 64.3149 254.255 64.8536 254.326 65.5062Z" stroke="#151254" stroke-width="0.91635" stroke-linecap="round" stroke-linejoin="round"/>
<path d="M254.615 69.8509C254.686 70.5035 255.228 71.023 255.825 71.0112C256.422 70.9994 256.848 70.4608 256.777 69.8081C256.706 69.1555 256.164 68.636 255.568 68.6478C254.971 68.6596 254.544 69.1983 254.615 69.8509Z" stroke="#151254" stroke-width="0.91635" stroke-linecap="round" stroke-linejoin="round"/>
<path d="M254.499 67.8636C254.553 68.3554 254.961 68.7469 255.411 68.738C255.861 68.7291 256.182 68.3232 256.128 67.8314C256.075 67.3396 255.667 66.9481 255.217 66.957C254.767 66.9659 254.446 67.3718 254.499 67.8636Z" stroke="#151254" stroke-width="0.91635" stroke-linecap="round" stroke-linejoin="round"/>
<path d="M256.508 64.8072L258.141 62.9146" stroke="#151254" stroke-width="0.91635" stroke-linecap="round" stroke-linejoin="round"/>
<path d="M252.424 63.4731L252.825 72.105" stroke="#151254" stroke-width="0.91635" stroke-linecap="round" stroke-linejoin="round"/>
<path d="M268.478 45.7984L267.817 35.9585C267.021 35.9834 266.427 36.7359 266.488 37.6434L266.929 44.2033C266.989 45.1108 267.681 45.8232 268.478 45.7984Z" stroke="#151254" stroke-width="0.91635" stroke-linecap="round" stroke-linejoin="round"/>
<path d="M273.066 40.6803C272.889 38.2466 270.877 36.3296 268.571 36.3964L268.049 36.4116L268.69 45.2215L269.212 45.2063C271.518 45.1395 273.243 43.1141 273.066 40.6803Z" stroke="#151254" stroke-width="0.91635" stroke-linecap="round" stroke-linejoin="round"/>
<path d="M272.799 40.6381C272.839 41.1744 273.288 41.5971 273.803 41.5824C274.318 41.5676 274.703 41.1209 274.663 40.5847C274.624 40.0485 274.174 39.6257 273.66 39.6405C273.145 39.6552 272.76 40.1019 272.799 40.6381Z" fill="#201D67"/>
<path d="M286.456 4.52441C286.433 6.03822 285.84 7.57821 284.679 8.82756C283.528 10.0655 282.023 10.7845 280.493 10.9531" stroke="#151254" stroke-width="0.91635" stroke-linecap="round" stroke-linejoin="round"/>
<path d="M280.166 11.5892L279.97 10.9265L277.983 4.20228C277.715 3.29708 278.5 2.45823 279.443 2.6443L281.438 3.0332L281.566 3.06011L283.301 3.40091L283.467 3.4315L286.377 4.00773L287.087 4.14989C287.769 4.2824 288.232 4.91101 288.153 5.58089C287.961 7.22809 287.276 8.79961 286.083 10.0832C284.901 11.3608 283.373 12.1682 281.725 12.5116C281.05 12.6518 280.361 12.2465 280.166 11.5892Z" stroke="#151254" stroke-width="0.91635" stroke-linecap="round" stroke-linejoin="round"/>
<path d="M281.729 7.40078C281.751 7.88233 282.167 8.25445 282.657 8.23192C283.147 8.20939 283.527 7.80075 283.504 7.31919C283.482 6.83764 283.066 6.46553 282.576 6.48806C282.086 6.51059 281.706 6.91923 281.729 7.40078Z" stroke="#151254" stroke-width="0.91635" stroke-linecap="round" stroke-linejoin="round"/>
<path d="M281.914 4.15888C281.593 3.87325 281.474 3.44727 281.577 3.06026L283.839 3.50247C283.799 3.71182 283.71 3.91254 283.553 4.08358C283.119 4.55135 282.384 4.58509 281.914 4.15888Z" stroke="#151254" stroke-width="0.91635" stroke-linecap="round" stroke-linejoin="round"/>
<path d="M278.821 4.99091C279.135 4.89456 279.49 4.96019 279.748 5.18864C280.137 5.53663 280.165 6.12518 279.809 6.50742C279.694 6.63285 279.55 6.7214 279.393 6.76685" stroke="#151254" stroke-width="0.91635" stroke-linecap="round" stroke-linejoin="round"/>
</g>
</g>
</svg>
