<svg width="19" height="17" viewBox="0 0 19 17" fill="none" xmlns="http://www.w3.org/2000/svg">
<g id="Icon">
<path fill-rule="evenodd" clip-rule="evenodd" d="M17.0636 1.59358C17.3263 1.33089 17.3263 0.905004 17.0636 0.642323C16.801 0.379642 16.3751 0.379642 16.1124 0.642323L1.76281 14.9919C1.50012 15.2546 1.50012 15.6805 1.76281 15.9432C2.02549 16.2058 2.45138 16.2058 2.71406 15.9432L5.26729 13.3899C6.49266 13.9667 7.904 14.3465 9.41322 14.3465C11.8204 14.3465 13.9785 13.3805 15.5303 12.1895C16.3076 11.5929 16.9496 10.9273 17.4032 10.2738C17.8442 9.63827 18.1575 8.94089 18.1575 8.29274C18.1575 7.64459 17.8442 6.94721 17.4032 6.31173C16.9496 5.6582 16.3076 4.99259 15.5303 4.39596C15.2952 4.21553 15.0462 4.04026 14.7845 3.87274L17.0636 1.59358ZM13.8074 4.84985L12.2192 6.43802C12.5713 6.96969 12.7764 7.60727 12.7764 8.29274C12.7764 10.1502 11.2707 11.6559 9.41322 11.6559C8.72775 11.6559 8.09018 11.4509 7.5585 11.0987L6.28792 12.3693C7.24354 12.7586 8.30303 13.0012 9.41322 13.0012C11.4639 13.0012 13.3416 12.1735 14.7112 11.1223C15.3945 10.5979 15.9346 10.0303 16.298 9.50676C16.6738 8.96512 16.8122 8.54144 16.8122 8.29274C16.8122 8.04405 16.6738 7.62036 16.298 7.07873C15.9346 6.55515 15.3945 5.98759 14.7112 5.46315C14.4303 5.24759 14.1281 5.04141 13.8074 4.84985ZM8.54323 10.114C8.80665 10.2401 9.1017 10.3107 9.41322 10.3107C10.5277 10.3107 11.4311 9.4072 11.4311 8.29274C11.4311 7.98121 11.3605 7.68617 11.2345 7.42274L8.54323 10.114Z" fill="#A2A3A6"/>
<path d="M9.41322 2.23901C10.3391 2.23901 11.2281 2.38192 12.0599 2.62557C12.22 2.67244 12.2677 2.87275 12.1497 2.99066L11.4102 3.73016C11.3548 3.78563 11.2744 3.80785 11.1979 3.79026C10.6245 3.65833 10.0266 3.58428 9.41322 3.58428C7.36254 3.58428 5.48483 4.412 4.11524 5.46315C3.43194 5.98759 2.89185 6.55515 2.5285 7.07873C2.15261 7.62036 2.01422 8.04405 2.01422 8.29274C2.01422 8.54144 2.15261 8.96512 2.5285 9.50676C2.84582 9.96402 3.29795 10.4548 3.86255 10.9211C3.96645 11.007 3.97635 11.164 3.88106 11.2593L3.24528 11.8951C3.16428 11.9761 3.03504 11.9832 2.94728 11.9096C2.32578 11.3884 1.80707 10.8268 1.42329 10.2738C0.982278 9.63827 0.668945 8.94089 0.668945 8.29274C0.668945 7.64459 0.982278 6.94721 1.42329 6.31173C1.87683 5.6582 2.51881 4.99259 3.29618 4.39596C4.84795 3.20499 7.00607 2.23901 9.41322 2.23901Z" fill="#A2A3A6"/>
<path d="M9.41322 4.92956C9.51947 4.92956 9.62457 4.93448 9.72831 4.94412C9.90486 4.96053 9.96877 5.17162 9.8434 5.297L8.75618 6.38422C8.17026 6.58589 7.70637 7.04978 7.5047 7.6357L6.41748 8.72291C6.2921 8.84829 6.08101 8.78438 6.0646 8.60782C6.05497 8.50409 6.05004 8.39899 6.05004 8.29274C6.05004 6.43531 7.55579 4.92956 9.41322 4.92956Z" fill="#A2A3A6"/>
</g>
</svg>
