<svg width="19" height="17" viewBox="0 0 19 17" fill="none" xmlns="http://www.w3.org/2000/svg">
<g id="Icon">
<path fill-rule="evenodd" clip-rule="evenodd" d="M16.9805 1.78963C17.2441 1.52611 17.2441 1.09886 16.9805 0.835336C16.717 0.571815 16.2898 0.571815 16.0262 0.835336L1.6308 15.2308C1.36728 15.4943 1.36728 15.9216 1.6308 16.1851C1.89432 16.4486 2.32157 16.4486 2.58509 16.1851L5.14649 13.6237C6.37578 14.2023 7.79162 14.5833 9.30567 14.5833C11.7205 14.5833 13.8855 13.6142 15.4423 12.4194C16.2221 11.8209 16.8661 11.1532 17.3211 10.4975C17.7636 9.86003 18.0779 9.16043 18.0779 8.5102C18.0779 7.85998 17.7636 7.16037 17.3211 6.52286C16.8661 5.86724 16.2221 5.1995 15.4423 4.60097C15.2064 4.41996 14.9566 4.24413 14.6941 4.07607L16.9805 1.78963ZM13.7139 5.05631L12.1206 6.64955C12.4739 7.18293 12.6796 7.82254 12.6796 8.5102C12.6796 10.3736 11.169 11.8841 9.30567 11.8841C8.61801 11.8841 7.97839 11.6784 7.44502 11.3251L6.17038 12.5998C7.12905 12.9903 8.19193 13.2337 9.30567 13.2337C11.3629 13.2337 13.2466 12.4033 14.6206 11.3488C15.3061 10.8227 15.8479 10.2534 16.2124 9.7281C16.5895 9.18473 16.7283 8.75969 16.7283 8.5102C16.7283 8.26071 16.5895 7.83567 16.2124 7.29231C15.8479 6.76706 15.3061 6.19768 14.6206 5.67157C14.3388 5.45532 14.0356 5.24848 13.7139 5.05631ZM8.43289 10.3373C8.69716 10.4637 8.99314 10.5346 9.30567 10.5346C10.4237 10.5346 11.33 9.62823 11.33 8.5102C11.33 8.19768 11.2592 7.90169 11.1327 7.63742L8.43289 10.3373Z" fill="#6C5FBC"/>
<path d="M9.30567 2.43713C10.2345 2.43713 11.1263 2.58049 11.9609 2.82492C12.1214 2.87194 12.1692 3.07289 12.0509 3.19118L11.3091 3.93304C11.2534 3.98869 11.1728 4.01098 11.0961 3.99334C10.5208 3.86099 9.921 3.7867 9.30567 3.7867C7.24843 3.7867 5.36472 4.61706 3.99076 5.67157C3.30527 6.19768 2.76345 6.76706 2.39894 7.29231C2.02185 7.83567 1.88302 8.26071 1.88302 8.5102C1.88302 8.75969 2.02185 9.18473 2.39894 9.7281C2.71728 10.1868 3.17085 10.6792 3.73725 11.147C3.84149 11.2331 3.85142 11.3907 3.75583 11.4863L3.11801 12.1241C3.03676 12.2053 2.90711 12.2125 2.81906 12.1386C2.19557 11.6158 1.67521 11.0523 1.2902 10.4975C0.847782 9.86003 0.533447 9.16043 0.533447 8.5102C0.533447 7.85998 0.847782 7.16037 1.2902 6.52286C1.74519 5.86724 2.38922 5.1995 3.16908 4.60097C4.72581 3.40619 6.89082 2.43713 9.30567 2.43713Z" fill="#6C5FBC"/>
<path d="M9.30567 5.13627C9.41226 5.13627 9.5177 5.14121 9.62176 5.15088C9.79887 5.16734 9.86299 5.37911 9.73722 5.50489L8.64653 6.59558C8.05873 6.79789 7.59336 7.26327 7.39104 7.85106L6.30035 8.94175C6.17458 9.06753 5.96281 9.00341 5.94635 8.82629C5.93668 8.72223 5.93174 8.61679 5.93174 8.5102C5.93174 6.64683 7.4423 5.13627 9.30567 5.13627Z" fill="#6C5FBC"/>
</g>
</svg>
