<svg width="132" height="233" viewBox="0 0 132 233" fill="none" xmlns="http://www.w3.org/2000/svg">
<path opacity="0.2" d="M159.751 1.99944C145.319 11.0571 128.982 19.5804 115.893 30.3352C103.085 40.8589 90.8392 54.4042 81.2626 67.0162C63.6149 90.2577 59.6952 112.304 58.4462 136.876C56.3848 177.428 66.3682 213.37 83.3567 247.729C94.6032 270.475 106.79 292.457 120.549 313.842C124.75 320.371 128.366 328.434 136.431 331.832" stroke="#A596FF" stroke-width="3.21454" stroke-linecap="round"/>
<path opacity="0.2" d="M198.57 2.81408C183.706 12.1433 166.88 20.9219 153.399 31.9995C140.208 42.8391 127.597 56.7913 117.734 69.7825C99.5596 93.7226 95.5246 116.433 94.2405 141.746C92.1215 183.519 102.408 220.546 119.909 255.942C131.495 279.375 144.05 302.021 158.224 324.051C162.551 330.778 166.277 339.083 174.583 342.585" stroke="#A596FF" stroke-width="3.21454" stroke-linecap="round"/>
</svg>
