<svg xmlns="http://www.w3.org/2000/svg" width="10" height="10" viewBox="0 0 16 16" fill="none">
<path fill-rule="evenodd" clip-rule="evenodd" d="M 8.1 0 C 9.2 0 10.3 0 11.3 0.1 C 12.3 0.1 13.2 0.3 14 0.8 C 15.1 1.4 15.7 2.3 15.9 3.6 C 16 4.3 16.1 5 16.1 5.8 C 16.2 7.3 16.1 8.9 16.1 10.5 C 16.1 11.4 16.1 12.2 15.8 13 C 15.3 14.5 14.2 15.5 12.6 15.8 C 11.9 15.9 11.1 15.9 10.4 16 C 8.8 16 7.3 16 5.7 16 C 4.8 16 4 15.9 3.2 15.7 C 1.7 15.1 0.7 14.1 0.4 12.5 C 0.3 11.7 0.3 11 0.2 10.3 C 0.2 8.7 0.2 7.1 0.2 5.5 C 0.2 4.7 0.3 3.8 0.5 3 C 1 1.5 2.1 0.5 3.7 0.2 C 4.5 0.1 5.2 0.1 5.9 0 C 6.7 0 7.4 0 8.1 0 Z M 14.7 7.8 C 14.6 7.8 14.7 7.8 14.7 7.8 C 14.6 7.2 14.6 6.6 14.6 5.9 C 14.6 5.3 14.6 4.7 14.5 4.1 C 14.4 2.8 13.6 1.9 12.3 1.6 C 11.6 1.4 10.8 1.4 10.1 1.4 C 8.8 1.4 7.4 1.4 6.1 1.4 C 5.4 1.4 4.7 1.5 4.1 1.6 C 2.9 1.8 2.1 2.4 1.8 3.6 C 1.7 3.9 1.7 4.3 1.6 4.7 C 1.6 6.1 1.6 7.6 1.6 9 C 1.6 9.9 1.6 10.9 1.7 11.8 C 1.8 13.1 2.6 14.1 4 14.3 C 4.7 14.4 5.4 14.5 6.1 14.5 C 7.4 14.5 8.8 14.5 10.1 14.5 C 10.7 14.5 11.3 14.4 12 14.4 C 12.5 14.3 13.1 14.1 13.5 13.7 C 14.3 13.1 14.5 12.3 14.6 11.4 C 14.6 10.3 14.6 9.1 14.7 7.8 Z" fill="#081420"/>
<path fill-rule="evenodd" clip-rule="evenodd" d="M 12.2 8 C 12.2 10.3 10.4 12.1 8.1 12.1 C 5.9 12.1 4 10.3 4 8 C 4 5.7 5.9 3.9 8.2 3.9 C 10.4 3.9 12.2 5.7 12.2 8 Z M 8.1 10.6 C 9.6 10.6 10.8 9.4 10.8 8 C 10.8 6.6 9.6 5.3 8.1 5.3 C 6.7 5.3 5.5 6.6 5.5 8 C 5.4 9.4 6.7 10.6 8.1 10.6 Z" fill="#081420"/>
<path d="M 13.3 3.7 C 13.3 4.2 12.9 4.7 12.4 4.7 C 11.8 4.7 11.4 4.2 11.4 3.7 C 11.4 3.2 11.8 2.8 12.4 2.8 C 12.9 2.8 13.3 3.2 13.3 3.7 Z" fill="#081420"/>
</svg>