<svg xmlns="http://www.w3.org/2000/svg" width="3" height="3" viewBox="25 0 30 16" fill="none">
<path fill-rule="evenodd" clip-rule="evenodd" d="M 52.1 9.3 V 15.2 H 48.6 V 9.7 C 48.6 8.3 48.2 7.4 46.9 7.4 C 46 7.4 45.4 8 45.2 8.6 C 45.1 8.9 45 9.2 45 9.5 V 15.2 H 41.6 C 41.6 15.2 41.6 5.9 41.6 4.9 H 45 V 6.4 C 45 6.4 45 6.4 45 6.4 H 45 V 6.4 C 45.5 5.7 46.3 4.7 48.1 4.7 C 50.4 4.7 52.1 6.2 52.1 9.3 Z M 38.1 0 C 36.9 0 36.1 0.8 36.1 1.8 C 36.1 2.7 36.9 3.5 38 3.5 H 38.1 C 39.3 3.5 40 2.7 40 1.8 C 40 0.8 39.2 0 38.1 0 Z M 36.3 15.2 H 39.7 V 4.9 H 36.3 V 15.2 Z" fill="#081420"/>
</svg>