<svg width="16" height="21" viewBox="0 0 16 21" fill="none" xmlns="http://www.w3.org/2000/svg">
<path id="Icon" fill-rule="evenodd" clip-rule="evenodd" d="M3.01912 6.46836L3.37145 9.63933L2.65847 9.69625C1.66422 9.77562 0.852367 10.523 0.691194 11.5073C0.319732 13.7759 0.319732 16.0898 0.691194 18.3584C0.852367 19.3427 1.66422 20.0901 2.65847 20.1694L4.19502 20.2921C6.62098 20.4858 9.05852 20.4858 11.4845 20.2921L13.021 20.1694C14.0153 20.0901 14.8271 19.3427 14.9883 18.3584C15.3598 16.0898 15.3598 13.7759 14.9883 11.5073C14.8271 10.523 14.0153 9.77562 13.021 9.69625L12.3079 9.63933L12.6603 6.46836C12.7018 6.09455 12.7018 5.71729 12.6603 5.34348L12.6369 5.13304C12.3889 2.90094 10.6341 1.13482 8.40365 0.872416C8.02897 0.828335 7.65042 0.828335 7.27573 0.872415C5.04528 1.13482 3.29052 2.90094 3.0425 5.13304L3.01912 5.34347C2.97759 5.71729 2.97759 6.09455 3.01912 6.46836ZM8.22366 2.40239C7.96856 2.37238 7.71083 2.37238 7.45573 2.40239C5.93716 2.58104 4.74246 3.78347 4.57361 5.30316L4.55022 5.5136C4.52125 5.77434 4.52125 6.03749 4.55022 6.29824L4.90845 9.52223C6.86061 9.39704 8.81878 9.39703 10.7709 9.52223L11.1292 6.29824C11.1581 6.03749 11.1581 5.77434 11.1292 5.5136L11.1058 5.30317C10.9369 3.78347 9.74223 2.58104 8.22366 2.40239ZM7.83972 13.3923C6.98891 13.3923 6.29919 14.082 6.29919 14.9328C6.29919 15.7836 6.98891 16.4734 7.83972 16.4734C8.69053 16.4734 9.38024 15.7836 9.38024 14.9328C9.38024 14.082 8.69053 13.3923 7.83972 13.3923Z" fill="#6C5FBC"/>
</svg>
