<svg width="17" height="19" viewBox="0 0 17 19" fill="none" xmlns="http://www.w3.org/2000/svg">
<g id="User Icon">
<g id="Icon">
<path d="M8.5413 0.59668C6.36949 0.59668 4.60889 2.45474 4.60889 4.74677C4.60889 7.0388 6.36949 8.89686 8.5413 8.89686C10.7131 8.89686 12.4737 7.0388 12.4737 4.74677C12.4737 2.45474 10.7131 0.59668 8.5413 0.59668Z" fill="#6C5FBC"/>
<path d="M4.34672 11.1102C2.17491 11.1102 0.414307 12.9683 0.414307 15.2603V16.5754C0.414307 17.409 0.986745 18.1197 1.76629 18.2541C6.25327 19.0272 10.8293 19.0272 15.3163 18.2541C16.0959 18.1197 16.6683 17.409 16.6683 16.5754V15.2603C16.6683 12.9683 14.9077 11.1102 12.7359 11.1102H12.3784C12.185 11.1102 11.9927 11.1425 11.8088 11.2059L10.9012 11.5187C9.36777 12.0471 7.71484 12.0471 6.18142 11.5187L5.2738 11.2059C5.08989 11.1425 4.89764 11.1102 4.70418 11.1102H4.34672Z" fill="#6C5FBC"/>
</g>
</g>
</svg>
